G04*
G04 #@! TF.GenerationSoftware,Altium Limited,Altium Designer,22.5.1 (42)*
G04*
G04 Layer_Physical_Order=3*
G04 Layer_Color=16440176*
%FSLAX44Y44*%
%MOMM*%
G71*
G04*
G04 #@! TF.SameCoordinates,DEA68BF6-4121-4663-B488-331C3DE2D4AB*
G04*
G04*
G04 #@! TF.FilePolarity,Positive*
G04*
G01*
G75*
%ADD14C,1.0000*%
%ADD24C,1.2700*%
%ADD25C,25.0000*%
%ADD27C,1.3000*%
%ADD30C,1.2700*%
%ADD31C,1.0000*%
D14*
X3600000Y1100000D02*
X4860000D01*
Y825000D02*
X5160000D01*
X4860000D02*
Y1100000D01*
Y0D02*
Y275090D01*
X5160000D01*
X5160000Y825000D02*
X5160000Y275090D01*
X1270000Y1100000D02*
X3600000D01*
X-0D02*
X0Y0D01*
X4860000D01*
X-0Y1100000D02*
X1270000Y1100000D01*
D24*
X768242Y660000D02*
X4770000D01*
X755000Y673242D02*
Y935259D01*
Y673242D02*
X768242Y660000D01*
X2000000Y315000D02*
X3595000D01*
X2805000Y290000D02*
X3595000D01*
X3627440Y355000D02*
X4810000D01*
X3442500Y150000D02*
X3612560D01*
X3620000Y347561D02*
X3627440Y355000D01*
X3612560Y150000D02*
X3620000Y157439D01*
Y347561D01*
X1680000Y455000D02*
X4810000D01*
X870000Y435000D02*
X4720000D01*
X355000Y400000D02*
X372300Y417300D01*
X4807300D02*
X4810000Y420000D01*
X372300Y417300D02*
X4807300D01*
X35000Y640000D02*
X4770000D01*
X60000Y600000D02*
X4770000D01*
X1650000Y620000D02*
X4770000D01*
X2395139Y697300D02*
X3312363D01*
X3315063Y700000D01*
X3200000Y732439D02*
X3217440Y715000D01*
X1580400Y679600D02*
X3319695D01*
X3320095Y680000D02*
X4770000D01*
X3319695Y679600D02*
X3320095Y680000D01*
X3305031Y715000D02*
X3315031Y725000D01*
X3217440Y715000D02*
X3305031D01*
X1565000Y695000D02*
X1580400Y679600D01*
X2380000Y712439D02*
X2395139Y697300D01*
X1565000Y695000D02*
Y940826D01*
X2380000Y712439D02*
Y940000D01*
X3200000Y732439D02*
Y940000D01*
X3315063Y700000D02*
X4770000D01*
X3315031Y725000D02*
X4770000D01*
X4890000Y695000D02*
X4986500D01*
X4885000Y700000D02*
X4890000Y695000D01*
X4900000Y475000D02*
X4986500D01*
X4900000Y455000D02*
X4986500D01*
X4810000Y335000D02*
X5105000D01*
X5110000Y340000D01*
X2370000Y950000D02*
X2380000Y940000D01*
X3300000Y735000D02*
X3315000Y750000D01*
X4770000D01*
X2336974Y950000D02*
X2370000D01*
X3146974D02*
X3190000D01*
X3037500D02*
X3146974D01*
X2227500D02*
X2336974D01*
X4020000Y790000D02*
X4770000D01*
X4000000Y810000D02*
X4020000Y790000D01*
X3956974Y950000D02*
X3992560D01*
X3847500D02*
X3956974D01*
X5145000Y297439D02*
Y387503D01*
X5137560Y394943D02*
X5145000Y387503D01*
X4832440Y290000D02*
X5137560D01*
X5036557Y394943D02*
X5137560D01*
Y290000D02*
X5145000Y297439D01*
X202500Y150000D02*
X345000D01*
X1929434D02*
X1975000D01*
X1822500D02*
X1929434D01*
X355000Y160000D02*
Y400000D01*
X1200000Y385835D02*
X1209165Y395000D01*
X4810000D01*
X1200000Y175000D02*
Y385835D01*
X4410000Y375000D02*
X4810000D01*
X1985000Y300000D02*
X2000000Y315000D01*
X2790000Y165000D02*
Y275000D01*
X1985000Y160000D02*
Y300000D01*
X2790000Y275000D02*
X2805000Y290000D01*
X345000Y150000D02*
X355000Y160000D01*
X1975000Y150000D02*
X1985000Y160000D01*
X1119434Y152982D02*
X1122118Y150298D01*
X1133291D01*
X1138589Y145000D01*
X1170000D01*
X1119434Y152982D02*
Y157824D01*
X1095050Y161550D02*
X1119434D01*
X1170000Y145000D02*
X1200000Y175000D01*
X1024050Y161550D02*
X1095050D01*
X1012500Y150000D02*
X1024050Y161550D01*
X4410000Y160000D02*
Y335000D01*
X4400000Y150000D02*
X4410000Y160000D01*
X4825000Y282561D02*
X4832440Y290000D01*
X4657500Y150000D02*
X4817560D01*
X4825000Y157439D02*
Y282561D01*
X2632500Y150000D02*
X2775000D01*
X2790000Y165000D01*
X717118Y942699D02*
X747561D01*
X755000Y935259D01*
X4847700Y402439D02*
X4855139Y395000D01*
X4847700Y402439D02*
Y937300D01*
X4835000Y950000D02*
X4847700Y937300D01*
X4855139Y395000D02*
X4986500D01*
X706306Y931887D02*
X717118Y942699D01*
X706306Y908394D02*
Y931887D01*
X710497Y904203D02*
Y906505D01*
X692590Y886296D02*
X696577Y890282D01*
X710497Y904203D01*
X665158Y893662D02*
X693197D01*
X696577Y890282D01*
X4657500Y950000D02*
X4766974D01*
X4835000D01*
X4252500Y150000D02*
X4400000D01*
X4817560Y150000D02*
X4825000Y157439D01*
X5036500Y395000D02*
X5036557Y394943D01*
X1527118Y948266D02*
X1557560D01*
X1565000Y940826D01*
X1421674Y945826D02*
X1526974D01*
Y948410D02*
Y949796D01*
Y948410D02*
X1527118Y948266D01*
X1417500Y950000D02*
X1421674Y945826D01*
X4000000Y810000D02*
Y942561D01*
X3992560Y950000D02*
X4000000Y942561D01*
X3190000Y950000D02*
X3200000Y940000D01*
D25*
X2632500Y150000D02*
D03*
X4657500Y150000D02*
D03*
Y950000D02*
D03*
X3847500D02*
D03*
X202500Y150000D02*
D03*
X607500Y950000D02*
D03*
X1012500Y150000D02*
D03*
X1417500Y950000D02*
D03*
X1822500Y150000D02*
D03*
X2227500Y950000D02*
D03*
X3037500D02*
D03*
X3442500Y150000D02*
D03*
X4252500D02*
D03*
D27*
X4986500Y395000D02*
D03*
X5036500D02*
D03*
X4986500Y455000D02*
D03*
Y475000D02*
D03*
Y695000D02*
D03*
D30*
X3595000Y315000D02*
D03*
Y290000D02*
D03*
X1680000Y455000D02*
D03*
X870000Y435000D02*
D03*
X4720000D02*
D03*
X4810000Y455000D02*
D03*
X35000Y640000D02*
D03*
X60000Y600000D02*
D03*
X4770000D02*
D03*
X1650000Y620000D02*
D03*
X4885000Y700000D02*
D03*
X4770000D02*
D03*
X4900000Y475000D02*
D03*
Y455000D02*
D03*
X4770000Y620000D02*
D03*
Y640000D02*
D03*
X4810000Y335000D02*
D03*
X5110000Y340000D02*
D03*
X4770000Y750000D02*
D03*
Y725000D02*
D03*
Y680000D02*
D03*
Y660000D02*
D03*
X3300000Y735000D02*
D03*
X4770000Y790000D02*
D03*
X4810000Y395000D02*
D03*
Y420000D02*
D03*
Y375000D02*
D03*
Y355000D02*
D03*
X4410000Y335000D02*
D03*
Y375000D02*
D03*
D31*
X2714288Y141822D02*
D03*
X2739434Y157824D02*
D03*
X4766466Y149442D02*
D03*
X4737764Y156300D02*
D03*
X4766974Y949796D02*
D03*
X4738526Y938874D02*
D03*
X4738272Y956654D02*
D03*
X3956974Y949796D02*
D03*
X3928526Y938874D02*
D03*
X3928272Y956654D02*
D03*
X284288Y141822D02*
D03*
X309434Y157824D02*
D03*
X665158Y893662D02*
D03*
X692590Y886296D02*
D03*
X706306Y908394D02*
D03*
X716974Y949796D02*
D03*
X714434Y929476D02*
D03*
X1095050Y161380D02*
D03*
X1119434Y157824D02*
D03*
X1526974Y949796D02*
D03*
X1498526Y938874D02*
D03*
X1498272Y956654D02*
D03*
X1904288Y141822D02*
D03*
X1929434Y157824D02*
D03*
X2336974Y949796D02*
D03*
X2308526Y938874D02*
D03*
X2308272Y956654D02*
D03*
X3146974Y949796D02*
D03*
X3118526Y938874D02*
D03*
X3118272Y956654D02*
D03*
X3524288Y141822D02*
D03*
X3549434Y157824D02*
D03*
X4334288Y141822D02*
D03*
X4359434Y157824D02*
D03*
M02*
