G04*
G04 #@! TF.GenerationSoftware,Altium Limited,Altium Designer,22.5.1 (42)*
G04*
G04 Layer_Color=16711935*
%FSLAX44Y44*%
%MOMM*%
G71*
G04*
G04 #@! TF.SameCoordinates,DEA68BF6-4121-4663-B488-331C3DE2D4AB*
G04*
G04*
G04 #@! TF.FilePolarity,Negative*
G04*
G01*
G75*
%ADD14C,1.0000*%
%ADD19C,0.2032*%
%ADD20C,25.2032*%
%ADD21C,0.8532*%
%ADD22C,1.5032*%
%ADD23R,1.5032X1.5032*%
D14*
X3600000Y1100000D02*
X4860000D01*
Y825000D02*
X5160000D01*
X4860000D02*
Y1100000D01*
Y0D02*
Y275090D01*
X5160000D01*
X5160000Y825000D02*
X5160000Y275090D01*
X1270000Y1100000D02*
X3600000D01*
X-0D02*
X0Y0D01*
X4860000D01*
X-0Y1100000D02*
X1270000Y1100000D01*
D19*
X2632500Y550000D02*
D03*
X4657500D02*
D03*
X3847500D02*
D03*
X202500D02*
D03*
X607500D02*
D03*
X1012500D02*
D03*
X1417500D02*
D03*
X1822500D02*
D03*
X2227500D02*
D03*
X3037500D02*
D03*
X3442500D02*
D03*
X4252500D02*
D03*
D20*
X2632500Y150000D02*
D03*
Y950000D02*
D03*
X4657500Y150000D02*
D03*
Y950000D02*
D03*
X3847500Y150000D02*
D03*
Y950000D02*
D03*
X202500Y150000D02*
D03*
Y950000D02*
D03*
X607500Y150000D02*
D03*
Y950000D02*
D03*
X1012500Y150000D02*
D03*
Y950000D02*
D03*
X1417500Y150000D02*
D03*
Y950000D02*
D03*
X1822500Y150000D02*
D03*
Y950000D02*
D03*
X2227500Y150000D02*
D03*
Y950000D02*
D03*
X3037500Y150000D02*
D03*
Y950000D02*
D03*
X3442500Y150000D02*
D03*
Y950000D02*
D03*
X4252500Y150000D02*
D03*
Y950000D02*
D03*
D21*
X5053500Y735000D02*
D03*
D22*
X4986500Y375000D02*
D03*
X5036500D02*
D03*
X4986500Y395000D02*
D03*
X5036500D02*
D03*
X4986500Y415000D02*
D03*
X5036500D02*
D03*
X4986500Y435000D02*
D03*
X5036500D02*
D03*
X4986500Y455000D02*
D03*
X5036500D02*
D03*
X4986500Y475000D02*
D03*
X5036500D02*
D03*
X4986500Y495000D02*
D03*
X5036500D02*
D03*
X4986500Y515000D02*
D03*
X5036500D02*
D03*
X4986500Y535000D02*
D03*
X5036500D02*
D03*
X4986500Y555000D02*
D03*
X5036500D02*
D03*
X4986500Y575000D02*
D03*
X5036500D02*
D03*
X4986500Y595000D02*
D03*
X5036500D02*
D03*
X4986500Y615000D02*
D03*
X5036500D02*
D03*
X4986500Y635000D02*
D03*
X5036500D02*
D03*
X4986500Y655000D02*
D03*
X5036500D02*
D03*
X4986500Y675000D02*
D03*
X5036500D02*
D03*
X4986500Y695000D02*
D03*
X5036500D02*
D03*
X4986500Y715000D02*
D03*
D23*
X5036500D02*
D03*
M02*
