G04*
G04 #@! TF.GenerationSoftware,Altium Limited,Altium Designer,22.5.1 (42)*
G04*
G04 Layer_Physical_Order=4*
G04 Layer_Color=16711680*
%FSLAX44Y44*%
%MOMM*%
G71*
G04*
G04 #@! TF.SameCoordinates,DEA68BF6-4121-4663-B488-331C3DE2D4AB*
G04*
G04*
G04 #@! TF.FilePolarity,Positive*
G04*
G01*
G75*
%ADD14C,1.0000*%
%ADD24C,1.2700*%
%ADD25C,25.0000*%
%ADD26C,0.6500*%
%ADD27C,1.3000*%
%ADD28R,1.3000X1.3000*%
%ADD29C,0.6000*%
%ADD30C,1.2700*%
%ADD31C,1.0000*%
D14*
X3600000Y1100000D02*
X4860000D01*
Y825000D02*
X5160000D01*
X4860000D02*
Y1100000D01*
Y0D02*
Y275090D01*
X5160000D01*
X5160000Y825000D02*
X5160000Y275090D01*
X1270000Y1100000D02*
X3600000D01*
X-0D02*
X0Y0D01*
X4860000D01*
X-0Y1100000D02*
X1270000Y1100000D01*
D24*
X5036500Y455000D02*
X5102560D01*
X5036500Y515000D02*
X5036581D01*
X5137560Y512850D02*
X5145000Y505410D01*
X5102560Y455000D02*
X5110000Y447561D01*
Y340000D02*
Y447561D01*
X5038731Y512850D02*
X5137560D01*
X5036581Y515000D02*
X5038731Y512850D01*
X5036443Y395057D02*
X5036500Y395000D01*
X5031199Y395057D02*
X5036443D01*
X5018650Y407606D02*
X5031199Y395057D01*
X5018650Y407606D02*
Y562394D01*
X5031199Y574943D01*
X5036443D02*
X5036500Y575000D01*
X5031199Y574943D02*
X5036443D01*
X3595000Y315000D02*
X4810000D01*
X3595000Y290000D02*
X4979060D01*
X4770000Y700000D02*
X4885000D01*
X4925000Y402439D02*
Y495000D01*
X4965000Y535000D01*
X4986419D01*
X4770000Y725000D02*
X4922560D01*
X4930000Y717561D01*
Y590032D02*
Y717561D01*
X3150000Y790000D02*
X4712560D01*
X4732560Y770000D02*
X4770000D01*
X4712560Y790000D02*
X4732560Y770000D01*
X5145000Y562497D02*
Y782561D01*
X5036557Y555057D02*
X5137560D01*
X5036500Y555000D02*
X5036557Y555057D01*
X4770000Y790000D02*
X5137560Y790000D01*
X5145000Y782561D01*
X5137560Y555057D02*
X5145000Y562497D01*
X4930000Y590032D02*
X4964974Y555057D01*
X4986443D02*
X4986500Y555000D01*
X4964974Y555057D02*
X4986443D01*
X4986500Y297439D02*
Y375000D01*
X4979060Y290000D02*
X4986500Y297439D01*
X5015000Y315000D02*
X5137560D01*
X5145000Y322439D01*
Y505410D01*
X4917560Y395000D02*
X4925000Y402439D01*
X4810000Y395000D02*
X4917560D01*
D25*
X2632500Y150000D02*
D03*
Y950000D02*
D03*
X4657500Y150000D02*
D03*
Y950000D02*
D03*
X3847500Y150000D02*
D03*
Y950000D02*
D03*
X202500Y150000D02*
D03*
Y950000D02*
D03*
X607500Y150000D02*
D03*
Y950000D02*
D03*
X1012500Y150000D02*
D03*
Y950000D02*
D03*
X1417500Y150000D02*
D03*
Y950000D02*
D03*
X1822500Y150000D02*
D03*
Y950000D02*
D03*
X2227500Y150000D02*
D03*
Y950000D02*
D03*
X3037500Y150000D02*
D03*
Y950000D02*
D03*
X3442500Y150000D02*
D03*
Y950000D02*
D03*
X4252500Y150000D02*
D03*
Y950000D02*
D03*
D26*
X5053500Y735000D02*
D03*
D27*
X4986500Y375000D02*
D03*
X5036500D02*
D03*
X4986500Y395000D02*
D03*
X5036500D02*
D03*
X4986500Y415000D02*
D03*
X5036500D02*
D03*
X4986500Y435000D02*
D03*
X5036500D02*
D03*
X4986500Y455000D02*
D03*
X5036500D02*
D03*
X4986500Y475000D02*
D03*
X5036500D02*
D03*
X4986500Y495000D02*
D03*
X5036500D02*
D03*
X4986500Y515000D02*
D03*
X5036500D02*
D03*
X4986500Y535000D02*
D03*
X5036500D02*
D03*
X4986500Y555000D02*
D03*
X5036500D02*
D03*
X4986500Y575000D02*
D03*
X5036500D02*
D03*
X4986500Y595000D02*
D03*
X5036500D02*
D03*
X4986500Y615000D02*
D03*
X5036500D02*
D03*
X4986500Y635000D02*
D03*
X5036500D02*
D03*
X4986500Y655000D02*
D03*
X5036500D02*
D03*
X4986500Y675000D02*
D03*
X5036500D02*
D03*
X4986500Y695000D02*
D03*
X5036500D02*
D03*
X4986500Y715000D02*
D03*
D28*
X5036500D02*
D03*
D29*
X3299431Y806930D02*
D03*
X3300000Y829730D02*
D03*
X4110000D02*
D03*
X60000Y807730D02*
D03*
Y829730D02*
D03*
X2490000Y807730D02*
D03*
X2490135Y829865D02*
D03*
X870000Y807730D02*
D03*
X870000Y829730D02*
D03*
D30*
X3595000Y315000D02*
D03*
Y290000D02*
D03*
X4810000Y810000D02*
D03*
X1680000Y455000D02*
D03*
X870000Y435000D02*
D03*
X4720000D02*
D03*
X4810000Y455000D02*
D03*
X35000Y640000D02*
D03*
X60000Y600000D02*
D03*
X4770000D02*
D03*
X1650000Y620000D02*
D03*
X4885000Y700000D02*
D03*
X4770000D02*
D03*
X4900000Y475000D02*
D03*
Y455000D02*
D03*
X4770000Y620000D02*
D03*
Y640000D02*
D03*
X4810000Y335000D02*
D03*
X5110000Y340000D02*
D03*
X4770000Y750000D02*
D03*
Y725000D02*
D03*
Y680000D02*
D03*
Y660000D02*
D03*
X3300000Y735000D02*
D03*
X3150000Y790000D02*
D03*
X4770000Y770000D02*
D03*
X4770000Y790000D02*
D03*
X4810000Y315000D02*
D03*
Y395000D02*
D03*
Y420000D02*
D03*
Y375000D02*
D03*
Y355000D02*
D03*
X4410000Y335000D02*
D03*
Y375000D02*
D03*
X5015000Y315000D02*
D03*
D31*
X2711240Y179668D02*
D03*
X2699810Y197194D02*
D03*
X2685078Y211418D02*
D03*
X2665774Y219800D02*
D03*
X2715050Y161380D02*
D03*
X2714288Y141822D02*
D03*
X2708192Y123788D02*
D03*
X2686348Y95848D02*
D03*
X2670092Y87212D02*
D03*
X2651296Y79846D02*
D03*
X2632246Y80100D02*
D03*
X2597448Y90006D02*
D03*
X2581446Y99912D02*
D03*
X2567476Y112358D02*
D03*
X2551728Y143346D02*
D03*
X2551474Y161126D02*
D03*
X2557570Y177636D02*
D03*
X2565698Y194146D02*
D03*
X2588050Y216244D02*
D03*
X2605068Y223356D02*
D03*
X2646470Y223864D02*
D03*
X2625896Y224880D02*
D03*
X2648756Y258408D02*
D03*
X2666790Y253582D02*
D03*
X2685078Y245708D02*
D03*
X2701334Y232754D02*
D03*
X2713272Y219038D02*
D03*
X2724956Y199988D02*
D03*
X2734608Y178652D02*
D03*
X2739434Y157824D02*
D03*
X2737910Y133948D02*
D03*
X2732576Y111088D02*
D03*
X2525566Y170524D02*
D03*
X2523026Y150204D02*
D03*
X2526836Y127598D02*
D03*
X2535472Y106008D02*
D03*
X2547664Y86704D02*
D03*
X2533694Y191606D02*
D03*
X2547410Y213704D02*
D03*
X2562396Y231992D02*
D03*
X2581700Y245708D02*
D03*
X2602782Y256376D02*
D03*
X2627166Y259678D02*
D03*
X2651992Y189646D02*
D03*
X2667552Y49620D02*
D03*
X2617514Y189320D02*
D03*
X2563412Y70194D02*
D03*
X2688380Y58002D02*
D03*
X2644692Y44540D02*
D03*
X2580938Y57240D02*
D03*
X2574842Y206338D02*
D03*
X2557062Y127598D02*
D03*
X2613704Y83656D02*
D03*
X2699048Y109818D02*
D03*
X2621324Y43778D02*
D03*
X2618530Y109056D02*
D03*
X2635548D02*
D03*
X2633770Y189574D02*
D03*
X2653582Y109310D02*
D03*
X2601004Y48858D02*
D03*
X2720892Y91022D02*
D03*
X2706668Y73496D02*
D03*
X2711748Y980022D02*
D03*
X2700318Y997548D02*
D03*
X2685586Y1011772D02*
D03*
X2666282Y1020154D02*
D03*
X2715558Y961734D02*
D03*
X2714796Y942176D02*
D03*
X2708700Y924142D02*
D03*
X2686856Y896202D02*
D03*
X2670600Y887566D02*
D03*
X2651804Y880200D02*
D03*
X2632754Y880454D02*
D03*
X2597956Y890360D02*
D03*
X2581954Y900266D02*
D03*
X2567984Y912712D02*
D03*
X2552236Y943700D02*
D03*
X2551982Y961480D02*
D03*
X2558078Y977990D02*
D03*
X2566206Y994500D02*
D03*
X2588558Y1016598D02*
D03*
X2605576Y1023710D02*
D03*
X2646978Y1024218D02*
D03*
X2626404Y1025234D02*
D03*
X2649264Y1058762D02*
D03*
X2667298Y1053936D02*
D03*
X2685586Y1046062D02*
D03*
X2701842Y1033108D02*
D03*
X2713780Y1019392D02*
D03*
X2725464Y1000342D02*
D03*
X2735116Y979006D02*
D03*
X2739942Y958178D02*
D03*
X2738418Y934302D02*
D03*
X2733084Y911442D02*
D03*
X2526074Y970878D02*
D03*
X2523534Y950558D02*
D03*
X2527344Y927952D02*
D03*
X2535980Y906362D02*
D03*
X2548172Y887058D02*
D03*
X2534202Y991960D02*
D03*
X2547918Y1014058D02*
D03*
X2562904Y1032346D02*
D03*
X2582208Y1046062D02*
D03*
X2603290Y1056730D02*
D03*
X2627674Y1060032D02*
D03*
X2652500Y990000D02*
D03*
X2668060Y849974D02*
D03*
X2618022Y989674D02*
D03*
X2563920Y870548D02*
D03*
X2688888Y858356D02*
D03*
X2645200Y844894D02*
D03*
X2581446Y857594D02*
D03*
X2575350Y1006692D02*
D03*
X2557570Y927952D02*
D03*
X2614212Y884010D02*
D03*
X2699556Y910172D02*
D03*
X2621832Y844132D02*
D03*
X2619038Y909410D02*
D03*
X2636056D02*
D03*
X2634278Y989928D02*
D03*
X2654090Y909664D02*
D03*
X2601512Y849212D02*
D03*
X2721400Y891376D02*
D03*
X2707176Y873850D02*
D03*
X4582824Y226150D02*
D03*
X4568600Y208624D02*
D03*
X4688488Y250788D02*
D03*
X4635910Y190336D02*
D03*
X4655722Y110072D02*
D03*
X4653944Y190590D02*
D03*
X4670962D02*
D03*
X4668168Y255868D02*
D03*
X4590444Y189828D02*
D03*
X4675788Y215990D02*
D03*
X4732430Y172048D02*
D03*
X4714650Y93308D02*
D03*
X4708554Y242406D02*
D03*
X4644800Y255106D02*
D03*
X4601112Y241644D02*
D03*
X4726080Y229452D02*
D03*
X4671978Y110326D02*
D03*
X4621940Y250026D02*
D03*
X4637500Y110000D02*
D03*
X4662326Y39968D02*
D03*
X4686710Y43270D02*
D03*
X4707792Y53938D02*
D03*
X4727096Y67654D02*
D03*
X4742082Y85942D02*
D03*
X4755798Y108040D02*
D03*
X4741828Y212942D02*
D03*
X4754020Y193638D02*
D03*
X4762656Y172048D02*
D03*
X4766466Y149442D02*
D03*
X4763926Y129122D02*
D03*
X4556916Y188558D02*
D03*
X4551582Y165698D02*
D03*
X4550058Y141822D02*
D03*
X4554884Y120994D02*
D03*
X4564536Y99658D02*
D03*
X4576220Y80608D02*
D03*
X4588158Y66892D02*
D03*
X4604414Y53938D02*
D03*
X4622702Y46064D02*
D03*
X4640736Y41238D02*
D03*
X4663596Y74766D02*
D03*
X4643022Y75782D02*
D03*
X4684424Y76290D02*
D03*
X4701442Y83402D02*
D03*
X4723794Y105500D02*
D03*
X4731922Y122010D02*
D03*
X4738018Y138520D02*
D03*
X4737764Y156300D02*
D03*
X4722016Y187288D02*
D03*
X4708046Y199734D02*
D03*
X4692044Y209640D02*
D03*
X4657246Y219546D02*
D03*
X4638196Y219800D02*
D03*
X4619400Y212434D02*
D03*
X4603144Y203798D02*
D03*
X4581300Y175858D02*
D03*
X4575204Y157824D02*
D03*
X4574442Y138266D02*
D03*
X4623718Y79846D02*
D03*
X4604414Y88228D02*
D03*
X4589682Y102452D02*
D03*
X4578252Y119978D02*
D03*
X4583332Y1026504D02*
D03*
X4569108Y1008978D02*
D03*
X4688996Y1051142D02*
D03*
X4636418Y990690D02*
D03*
X4656230Y910426D02*
D03*
X4654452Y990944D02*
D03*
X4671470D02*
D03*
X4668676Y1056222D02*
D03*
X4590952Y990182D02*
D03*
X4676296Y1016344D02*
D03*
X4732938Y972402D02*
D03*
X4715158Y893662D02*
D03*
X4709062Y1042760D02*
D03*
X4645308Y1055460D02*
D03*
X4601620Y1041998D02*
D03*
X4726588Y1029806D02*
D03*
X4672486Y910680D02*
D03*
X4622448Y1050380D02*
D03*
X4638008Y910354D02*
D03*
X4662834Y840322D02*
D03*
X4687218Y843624D02*
D03*
X4708300Y854292D02*
D03*
X4727604Y868008D02*
D03*
X4742590Y886296D02*
D03*
X4756306Y908394D02*
D03*
X4742336Y1013296D02*
D03*
X4754528Y993992D02*
D03*
X4763164Y972402D02*
D03*
X4766974Y949796D02*
D03*
X4764434Y929476D02*
D03*
X4557424Y988912D02*
D03*
X4552090Y966052D02*
D03*
X4550566Y942176D02*
D03*
X4555392Y921348D02*
D03*
X4565044Y900012D02*
D03*
X4576728Y880962D02*
D03*
X4588666Y867246D02*
D03*
X4604922Y854292D02*
D03*
X4623210Y846418D02*
D03*
X4641244Y841592D02*
D03*
X4664104Y875120D02*
D03*
X4643530Y876136D02*
D03*
X4684932Y876644D02*
D03*
X4701950Y883756D02*
D03*
X4724302Y905854D02*
D03*
X4732430Y922364D02*
D03*
X4738526Y938874D02*
D03*
X4738272Y956654D02*
D03*
X4722524Y987642D02*
D03*
X4708554Y1000088D02*
D03*
X4692552Y1009994D02*
D03*
X4657754Y1019900D02*
D03*
X4638704Y1020154D02*
D03*
X4619908Y1012788D02*
D03*
X4603652Y1004152D02*
D03*
X4581808Y976212D02*
D03*
X4575712Y958178D02*
D03*
X4574950Y938620D02*
D03*
X4624226Y880200D02*
D03*
X4604922Y888582D02*
D03*
X4590190Y902806D02*
D03*
X4578760Y920332D02*
D03*
X3772824Y226150D02*
D03*
X3758600Y208624D02*
D03*
X3878488Y250788D02*
D03*
X3825910Y190336D02*
D03*
X3845722Y110072D02*
D03*
X3843944Y190590D02*
D03*
X3860962D02*
D03*
X3858168Y255868D02*
D03*
X3780444Y189828D02*
D03*
X3865788Y215990D02*
D03*
X3922430Y172048D02*
D03*
X3904650Y93308D02*
D03*
X3898554Y242406D02*
D03*
X3834800Y255106D02*
D03*
X3791112Y241644D02*
D03*
X3916080Y229452D02*
D03*
X3861978Y110326D02*
D03*
X3811940Y250026D02*
D03*
X3827500Y110000D02*
D03*
X3852326Y39968D02*
D03*
X3876710Y43270D02*
D03*
X3897792Y53938D02*
D03*
X3917096Y67654D02*
D03*
X3932082Y85942D02*
D03*
X3945798Y108040D02*
D03*
X3931828Y212942D02*
D03*
X3944020Y193638D02*
D03*
X3952656Y172048D02*
D03*
X3956466Y149442D02*
D03*
X3953926Y129122D02*
D03*
X3746916Y188558D02*
D03*
X3741582Y165698D02*
D03*
X3740058Y141822D02*
D03*
X3744884Y120994D02*
D03*
X3754536Y99658D02*
D03*
X3766220Y80608D02*
D03*
X3778158Y66892D02*
D03*
X3794414Y53938D02*
D03*
X3812702Y46064D02*
D03*
X3830736Y41238D02*
D03*
X3853596Y74766D02*
D03*
X3833022Y75782D02*
D03*
X3874424Y76290D02*
D03*
X3891442Y83402D02*
D03*
X3913794Y105500D02*
D03*
X3921922Y122010D02*
D03*
X3928018Y138520D02*
D03*
X3927764Y156300D02*
D03*
X3912016Y187288D02*
D03*
X3898046Y199734D02*
D03*
X3882044Y209640D02*
D03*
X3847246Y219546D02*
D03*
X3828196Y219800D02*
D03*
X3809400Y212434D02*
D03*
X3793144Y203798D02*
D03*
X3771300Y175858D02*
D03*
X3765204Y157824D02*
D03*
X3764442Y138266D02*
D03*
X3813718Y79846D02*
D03*
X3794414Y88228D02*
D03*
X3779682Y102452D02*
D03*
X3768252Y119978D02*
D03*
X3773332Y1026504D02*
D03*
X3759108Y1008978D02*
D03*
X3878996Y1051142D02*
D03*
X3826418Y990690D02*
D03*
X3846230Y910426D02*
D03*
X3844452Y990944D02*
D03*
X3861470D02*
D03*
X3858676Y1056222D02*
D03*
X3780952Y990182D02*
D03*
X3866296Y1016344D02*
D03*
X3922938Y972402D02*
D03*
X3905158Y893662D02*
D03*
X3899062Y1042760D02*
D03*
X3835308Y1055460D02*
D03*
X3791620Y1041998D02*
D03*
X3916588Y1029806D02*
D03*
X3862486Y910680D02*
D03*
X3812448Y1050380D02*
D03*
X3828008Y910354D02*
D03*
X3852834Y840322D02*
D03*
X3877218Y843624D02*
D03*
X3898300Y854292D02*
D03*
X3917604Y868008D02*
D03*
X3932590Y886296D02*
D03*
X3946306Y908394D02*
D03*
X3932336Y1013296D02*
D03*
X3944528Y993992D02*
D03*
X3953164Y972402D02*
D03*
X3956974Y949796D02*
D03*
X3954434Y929476D02*
D03*
X3747424Y988912D02*
D03*
X3742090Y966052D02*
D03*
X3740566Y942176D02*
D03*
X3745392Y921348D02*
D03*
X3755044Y900012D02*
D03*
X3766728Y880962D02*
D03*
X3778666Y867246D02*
D03*
X3794922Y854292D02*
D03*
X3813210Y846418D02*
D03*
X3831244Y841592D02*
D03*
X3854104Y875120D02*
D03*
X3833530Y876136D02*
D03*
X3874932Y876644D02*
D03*
X3891950Y883756D02*
D03*
X3914302Y905854D02*
D03*
X3922430Y922364D02*
D03*
X3928526Y938874D02*
D03*
X3928272Y956654D02*
D03*
X3912524Y987642D02*
D03*
X3898554Y1000088D02*
D03*
X3882552Y1009994D02*
D03*
X3847754Y1019900D02*
D03*
X3828704Y1020154D02*
D03*
X3809908Y1012788D02*
D03*
X3793652Y1004152D02*
D03*
X3771808Y976212D02*
D03*
X3765712Y958178D02*
D03*
X3764950Y938620D02*
D03*
X3814226Y880200D02*
D03*
X3794922Y888582D02*
D03*
X3780190Y902806D02*
D03*
X3768760Y920332D02*
D03*
X281240Y179668D02*
D03*
X269810Y197194D02*
D03*
X255078Y211418D02*
D03*
X235774Y219800D02*
D03*
X285050Y161380D02*
D03*
X284288Y141822D02*
D03*
X278192Y123788D02*
D03*
X256348Y95848D02*
D03*
X240092Y87212D02*
D03*
X221296Y79846D02*
D03*
X202246Y80100D02*
D03*
X167448Y90006D02*
D03*
X151446Y99912D02*
D03*
X137476Y112358D02*
D03*
X121728Y143346D02*
D03*
X121474Y161126D02*
D03*
X127570Y177636D02*
D03*
X135698Y194146D02*
D03*
X158050Y216244D02*
D03*
X175068Y223356D02*
D03*
X216470Y223864D02*
D03*
X195896Y224880D02*
D03*
X218756Y258408D02*
D03*
X236790Y253582D02*
D03*
X255078Y245708D02*
D03*
X271334Y232754D02*
D03*
X283272Y219038D02*
D03*
X294956Y199988D02*
D03*
X304608Y178652D02*
D03*
X309434Y157824D02*
D03*
X307910Y133948D02*
D03*
X302576Y111088D02*
D03*
X95566Y170524D02*
D03*
X93026Y150204D02*
D03*
X96836Y127598D02*
D03*
X105472Y106008D02*
D03*
X117664Y86704D02*
D03*
X103694Y191606D02*
D03*
X117410Y213704D02*
D03*
X132396Y231992D02*
D03*
X151700Y245708D02*
D03*
X172782Y256376D02*
D03*
X197166Y259678D02*
D03*
X221992Y189646D02*
D03*
X237552Y49620D02*
D03*
X187514Y189320D02*
D03*
X133412Y70194D02*
D03*
X258380Y58002D02*
D03*
X214692Y44540D02*
D03*
X150938Y57240D02*
D03*
X144842Y206338D02*
D03*
X127062Y127598D02*
D03*
X183704Y83656D02*
D03*
X269048Y109818D02*
D03*
X191324Y43778D02*
D03*
X188530Y109056D02*
D03*
X205548D02*
D03*
X203770Y189574D02*
D03*
X223582Y109310D02*
D03*
X171004Y48858D02*
D03*
X290892Y91022D02*
D03*
X276668Y73496D02*
D03*
X281748Y980022D02*
D03*
X270318Y997548D02*
D03*
X255586Y1011772D02*
D03*
X236282Y1020154D02*
D03*
X285558Y961734D02*
D03*
X284796Y942176D02*
D03*
X278700Y924142D02*
D03*
X256856Y896202D02*
D03*
X240600Y887566D02*
D03*
X221804Y880200D02*
D03*
X202754Y880454D02*
D03*
X167956Y890360D02*
D03*
X151954Y900266D02*
D03*
X137984Y912712D02*
D03*
X122236Y943700D02*
D03*
X121982Y961480D02*
D03*
X128078Y977990D02*
D03*
X136206Y994500D02*
D03*
X158558Y1016598D02*
D03*
X175576Y1023710D02*
D03*
X216978Y1024218D02*
D03*
X196404Y1025234D02*
D03*
X219264Y1058762D02*
D03*
X237298Y1053936D02*
D03*
X255586Y1046062D02*
D03*
X271842Y1033108D02*
D03*
X283780Y1019392D02*
D03*
X295464Y1000342D02*
D03*
X305116Y979006D02*
D03*
X309942Y958178D02*
D03*
X308418Y934302D02*
D03*
X303084Y911442D02*
D03*
X96074Y970878D02*
D03*
X93534Y950558D02*
D03*
X97344Y927952D02*
D03*
X105980Y906362D02*
D03*
X118172Y887058D02*
D03*
X104202Y991960D02*
D03*
X117918Y1014058D02*
D03*
X132904Y1032346D02*
D03*
X152208Y1046062D02*
D03*
X173290Y1056730D02*
D03*
X197674Y1060032D02*
D03*
X222500Y990000D02*
D03*
X238060Y849974D02*
D03*
X188022Y989674D02*
D03*
X133920Y870548D02*
D03*
X258888Y858356D02*
D03*
X215200Y844894D02*
D03*
X151446Y857594D02*
D03*
X145350Y1006692D02*
D03*
X127570Y927952D02*
D03*
X184212Y884010D02*
D03*
X269556Y910172D02*
D03*
X191832Y844132D02*
D03*
X189038Y909410D02*
D03*
X206056D02*
D03*
X204278Y989928D02*
D03*
X224090Y909664D02*
D03*
X171512Y849212D02*
D03*
X291400Y891376D02*
D03*
X277176Y873850D02*
D03*
X532824Y226150D02*
D03*
X518600Y208624D02*
D03*
X638488Y250788D02*
D03*
X585910Y190336D02*
D03*
X605722Y110072D02*
D03*
X603944Y190590D02*
D03*
X620962D02*
D03*
X618168Y255868D02*
D03*
X540444Y189828D02*
D03*
X625788Y215990D02*
D03*
X682430Y172048D02*
D03*
X664650Y93308D02*
D03*
X658554Y242406D02*
D03*
X594800Y255106D02*
D03*
X551112Y241644D02*
D03*
X676080Y229452D02*
D03*
X621978Y110326D02*
D03*
X571940Y250026D02*
D03*
X587500Y110000D02*
D03*
X612326Y39968D02*
D03*
X636710Y43270D02*
D03*
X657792Y53938D02*
D03*
X677096Y67654D02*
D03*
X692082Y85942D02*
D03*
X705798Y108040D02*
D03*
X691828Y212942D02*
D03*
X704020Y193638D02*
D03*
X712656Y172048D02*
D03*
X716466Y149442D02*
D03*
X713926Y129122D02*
D03*
X506916Y188558D02*
D03*
X501582Y165698D02*
D03*
X500058Y141822D02*
D03*
X504884Y120994D02*
D03*
X514536Y99658D02*
D03*
X526220Y80608D02*
D03*
X538158Y66892D02*
D03*
X554414Y53938D02*
D03*
X572702Y46064D02*
D03*
X590736Y41238D02*
D03*
X613596Y74766D02*
D03*
X593022Y75782D02*
D03*
X634424Y76290D02*
D03*
X651442Y83402D02*
D03*
X673794Y105500D02*
D03*
X681922Y122010D02*
D03*
X688018Y138520D02*
D03*
X687764Y156300D02*
D03*
X672016Y187288D02*
D03*
X658046Y199734D02*
D03*
X642044Y209640D02*
D03*
X607246Y219546D02*
D03*
X588196Y219800D02*
D03*
X569400Y212434D02*
D03*
X553144Y203798D02*
D03*
X531300Y175858D02*
D03*
X525204Y157824D02*
D03*
X524442Y138266D02*
D03*
X573718Y79846D02*
D03*
X554414Y88228D02*
D03*
X539682Y102452D02*
D03*
X528252Y119978D02*
D03*
X533332Y1026504D02*
D03*
X519108Y1008978D02*
D03*
X638996Y1051142D02*
D03*
X586418Y990690D02*
D03*
X606230Y910426D02*
D03*
X604452Y990944D02*
D03*
X621470D02*
D03*
X618676Y1056222D02*
D03*
X540952Y990182D02*
D03*
X626296Y1016344D02*
D03*
X682938Y972402D02*
D03*
X665158Y893662D02*
D03*
X659062Y1042760D02*
D03*
X595308Y1055460D02*
D03*
X551620Y1041998D02*
D03*
X676588Y1029806D02*
D03*
X622486Y910680D02*
D03*
X572448Y1050380D02*
D03*
X588008Y910354D02*
D03*
X612834Y840322D02*
D03*
X637218Y843624D02*
D03*
X658300Y854292D02*
D03*
X677604Y868008D02*
D03*
X692590Y886296D02*
D03*
X706306Y908394D02*
D03*
X692336Y1013296D02*
D03*
X704528Y993992D02*
D03*
X713164Y972402D02*
D03*
X716974Y949796D02*
D03*
X714434Y929476D02*
D03*
X507424Y988912D02*
D03*
X502090Y966052D02*
D03*
X500566Y942176D02*
D03*
X505392Y921348D02*
D03*
X515044Y900012D02*
D03*
X526728Y880962D02*
D03*
X538666Y867246D02*
D03*
X554922Y854292D02*
D03*
X573210Y846418D02*
D03*
X591244Y841592D02*
D03*
X614104Y875120D02*
D03*
X593530Y876136D02*
D03*
X634932Y876644D02*
D03*
X651950Y883756D02*
D03*
X674302Y905854D02*
D03*
X682430Y922364D02*
D03*
X688526Y938874D02*
D03*
X688272Y956654D02*
D03*
X672524Y987642D02*
D03*
X658554Y1000088D02*
D03*
X642552Y1009994D02*
D03*
X607754Y1019900D02*
D03*
X588704Y1020154D02*
D03*
X569908Y1012788D02*
D03*
X553652Y1004152D02*
D03*
X531808Y976212D02*
D03*
X525712Y958178D02*
D03*
X524950Y938620D02*
D03*
X574226Y880200D02*
D03*
X554922Y888582D02*
D03*
X540190Y902806D02*
D03*
X528760Y920332D02*
D03*
X1091240Y179668D02*
D03*
X1079810Y197194D02*
D03*
X1065078Y211418D02*
D03*
X1045774Y219800D02*
D03*
X1095050Y161380D02*
D03*
X1094288Y141822D02*
D03*
X1088192Y123788D02*
D03*
X1066348Y95848D02*
D03*
X1050092Y87212D02*
D03*
X1031296Y79846D02*
D03*
X1012246Y80100D02*
D03*
X977448Y90006D02*
D03*
X961446Y99912D02*
D03*
X947476Y112358D02*
D03*
X931728Y143346D02*
D03*
X931474Y161126D02*
D03*
X937570Y177636D02*
D03*
X945698Y194146D02*
D03*
X968050Y216244D02*
D03*
X985068Y223356D02*
D03*
X1026470Y223864D02*
D03*
X1005896Y224880D02*
D03*
X1028756Y258408D02*
D03*
X1046790Y253582D02*
D03*
X1065078Y245708D02*
D03*
X1081334Y232754D02*
D03*
X1093272Y219038D02*
D03*
X1104956Y199988D02*
D03*
X1114608Y178652D02*
D03*
X1119434Y157824D02*
D03*
X1117910Y133948D02*
D03*
X1112576Y111088D02*
D03*
X905566Y170524D02*
D03*
X903026Y150204D02*
D03*
X906836Y127598D02*
D03*
X915472Y106008D02*
D03*
X927664Y86704D02*
D03*
X913694Y191606D02*
D03*
X927410Y213704D02*
D03*
X942396Y231992D02*
D03*
X961700Y245708D02*
D03*
X982782Y256376D02*
D03*
X1007166Y259678D02*
D03*
X1031992Y189646D02*
D03*
X1047552Y49620D02*
D03*
X997514Y189320D02*
D03*
X943412Y70194D02*
D03*
X1068380Y58002D02*
D03*
X1024692Y44540D02*
D03*
X960938Y57240D02*
D03*
X954842Y206338D02*
D03*
X937062Y127598D02*
D03*
X993704Y83656D02*
D03*
X1079048Y109818D02*
D03*
X1001324Y43778D02*
D03*
X998530Y109056D02*
D03*
X1015548D02*
D03*
X1013770Y189574D02*
D03*
X1033582Y109310D02*
D03*
X981004Y48858D02*
D03*
X1100892Y91022D02*
D03*
X1086668Y73496D02*
D03*
X1091748Y980022D02*
D03*
X1080318Y997548D02*
D03*
X1065586Y1011772D02*
D03*
X1046282Y1020154D02*
D03*
X1095558Y961734D02*
D03*
X1094796Y942176D02*
D03*
X1088700Y924142D02*
D03*
X1066856Y896202D02*
D03*
X1050600Y887566D02*
D03*
X1031804Y880200D02*
D03*
X1012754Y880454D02*
D03*
X977956Y890360D02*
D03*
X961954Y900266D02*
D03*
X947984Y912712D02*
D03*
X932236Y943700D02*
D03*
X931982Y961480D02*
D03*
X938078Y977990D02*
D03*
X946206Y994500D02*
D03*
X968558Y1016598D02*
D03*
X985576Y1023710D02*
D03*
X1026978Y1024218D02*
D03*
X1006404Y1025234D02*
D03*
X1029264Y1058762D02*
D03*
X1047298Y1053936D02*
D03*
X1065586Y1046062D02*
D03*
X1081842Y1033108D02*
D03*
X1093780Y1019392D02*
D03*
X1105464Y1000342D02*
D03*
X1115116Y979006D02*
D03*
X1119942Y958178D02*
D03*
X1118418Y934302D02*
D03*
X1113084Y911442D02*
D03*
X906074Y970878D02*
D03*
X903534Y950558D02*
D03*
X907344Y927952D02*
D03*
X915980Y906362D02*
D03*
X928172Y887058D02*
D03*
X914202Y991960D02*
D03*
X927918Y1014058D02*
D03*
X942904Y1032346D02*
D03*
X962208Y1046062D02*
D03*
X983290Y1056730D02*
D03*
X1007674Y1060032D02*
D03*
X1032500Y990000D02*
D03*
X1048060Y849974D02*
D03*
X998022Y989674D02*
D03*
X943920Y870548D02*
D03*
X1068888Y858356D02*
D03*
X1025200Y844894D02*
D03*
X961446Y857594D02*
D03*
X955350Y1006692D02*
D03*
X937570Y927952D02*
D03*
X994212Y884010D02*
D03*
X1079556Y910172D02*
D03*
X1001832Y844132D02*
D03*
X999038Y909410D02*
D03*
X1016056D02*
D03*
X1014278Y989928D02*
D03*
X1034090Y909664D02*
D03*
X981512Y849212D02*
D03*
X1101400Y891376D02*
D03*
X1087176Y873850D02*
D03*
X1342824Y226150D02*
D03*
X1328600Y208624D02*
D03*
X1448488Y250788D02*
D03*
X1395910Y190336D02*
D03*
X1415722Y110072D02*
D03*
X1413944Y190590D02*
D03*
X1430962D02*
D03*
X1428168Y255868D02*
D03*
X1350444Y189828D02*
D03*
X1435788Y215990D02*
D03*
X1492430Y172048D02*
D03*
X1474650Y93308D02*
D03*
X1468554Y242406D02*
D03*
X1404800Y255106D02*
D03*
X1361112Y241644D02*
D03*
X1486080Y229452D02*
D03*
X1431978Y110326D02*
D03*
X1381940Y250026D02*
D03*
X1397500Y110000D02*
D03*
X1422326Y39968D02*
D03*
X1446710Y43270D02*
D03*
X1467792Y53938D02*
D03*
X1487096Y67654D02*
D03*
X1502082Y85942D02*
D03*
X1515798Y108040D02*
D03*
X1501828Y212942D02*
D03*
X1514020Y193638D02*
D03*
X1522656Y172048D02*
D03*
X1526466Y149442D02*
D03*
X1523926Y129122D02*
D03*
X1316916Y188558D02*
D03*
X1311582Y165698D02*
D03*
X1310058Y141822D02*
D03*
X1314884Y120994D02*
D03*
X1324536Y99658D02*
D03*
X1336220Y80608D02*
D03*
X1348158Y66892D02*
D03*
X1364414Y53938D02*
D03*
X1382702Y46064D02*
D03*
X1400736Y41238D02*
D03*
X1423596Y74766D02*
D03*
X1403022Y75782D02*
D03*
X1444424Y76290D02*
D03*
X1461442Y83402D02*
D03*
X1483794Y105500D02*
D03*
X1491922Y122010D02*
D03*
X1498018Y138520D02*
D03*
X1497764Y156300D02*
D03*
X1482016Y187288D02*
D03*
X1468046Y199734D02*
D03*
X1452044Y209640D02*
D03*
X1417246Y219546D02*
D03*
X1398196Y219800D02*
D03*
X1379400Y212434D02*
D03*
X1363144Y203798D02*
D03*
X1341300Y175858D02*
D03*
X1335204Y157824D02*
D03*
X1334442Y138266D02*
D03*
X1383718Y79846D02*
D03*
X1364414Y88228D02*
D03*
X1349682Y102452D02*
D03*
X1338252Y119978D02*
D03*
X1343332Y1026504D02*
D03*
X1329108Y1008978D02*
D03*
X1448996Y1051142D02*
D03*
X1396418Y990690D02*
D03*
X1416230Y910426D02*
D03*
X1414452Y990944D02*
D03*
X1431470D02*
D03*
X1428676Y1056222D02*
D03*
X1350952Y990182D02*
D03*
X1436296Y1016344D02*
D03*
X1492938Y972402D02*
D03*
X1475158Y893662D02*
D03*
X1469062Y1042760D02*
D03*
X1405308Y1055460D02*
D03*
X1361620Y1041998D02*
D03*
X1486588Y1029806D02*
D03*
X1432486Y910680D02*
D03*
X1382448Y1050380D02*
D03*
X1398008Y910354D02*
D03*
X1422834Y840322D02*
D03*
X1447218Y843624D02*
D03*
X1468300Y854292D02*
D03*
X1487604Y868008D02*
D03*
X1502590Y886296D02*
D03*
X1516306Y908394D02*
D03*
X1502336Y1013296D02*
D03*
X1514528Y993992D02*
D03*
X1523164Y972402D02*
D03*
X1526974Y949796D02*
D03*
X1524434Y929476D02*
D03*
X1317424Y988912D02*
D03*
X1312090Y966052D02*
D03*
X1310566Y942176D02*
D03*
X1315392Y921348D02*
D03*
X1325044Y900012D02*
D03*
X1336728Y880962D02*
D03*
X1348666Y867246D02*
D03*
X1364922Y854292D02*
D03*
X1383210Y846418D02*
D03*
X1401244Y841592D02*
D03*
X1424104Y875120D02*
D03*
X1403530Y876136D02*
D03*
X1444932Y876644D02*
D03*
X1461950Y883756D02*
D03*
X1484302Y905854D02*
D03*
X1492430Y922364D02*
D03*
X1498526Y938874D02*
D03*
X1498272Y956654D02*
D03*
X1482524Y987642D02*
D03*
X1468554Y1000088D02*
D03*
X1452552Y1009994D02*
D03*
X1417754Y1019900D02*
D03*
X1398704Y1020154D02*
D03*
X1379908Y1012788D02*
D03*
X1363652Y1004152D02*
D03*
X1341808Y976212D02*
D03*
X1335712Y958178D02*
D03*
X1334950Y938620D02*
D03*
X1384226Y880200D02*
D03*
X1364922Y888582D02*
D03*
X1350190Y902806D02*
D03*
X1338760Y920332D02*
D03*
X1901240Y179668D02*
D03*
X1889810Y197194D02*
D03*
X1875078Y211418D02*
D03*
X1855774Y219800D02*
D03*
X1905050Y161380D02*
D03*
X1904288Y141822D02*
D03*
X1898192Y123788D02*
D03*
X1876348Y95848D02*
D03*
X1860092Y87212D02*
D03*
X1841296Y79846D02*
D03*
X1822246Y80100D02*
D03*
X1787448Y90006D02*
D03*
X1771446Y99912D02*
D03*
X1757476Y112358D02*
D03*
X1741728Y143346D02*
D03*
X1741474Y161126D02*
D03*
X1747570Y177636D02*
D03*
X1755698Y194146D02*
D03*
X1778050Y216244D02*
D03*
X1795068Y223356D02*
D03*
X1836470Y223864D02*
D03*
X1815896Y224880D02*
D03*
X1838756Y258408D02*
D03*
X1856790Y253582D02*
D03*
X1875078Y245708D02*
D03*
X1891334Y232754D02*
D03*
X1903272Y219038D02*
D03*
X1914956Y199988D02*
D03*
X1924608Y178652D02*
D03*
X1929434Y157824D02*
D03*
X1927910Y133948D02*
D03*
X1922576Y111088D02*
D03*
X1715566Y170524D02*
D03*
X1713026Y150204D02*
D03*
X1716836Y127598D02*
D03*
X1725472Y106008D02*
D03*
X1737664Y86704D02*
D03*
X1723694Y191606D02*
D03*
X1737410Y213704D02*
D03*
X1752396Y231992D02*
D03*
X1771700Y245708D02*
D03*
X1792782Y256376D02*
D03*
X1817166Y259678D02*
D03*
X1841992Y189646D02*
D03*
X1857552Y49620D02*
D03*
X1807514Y189320D02*
D03*
X1753412Y70194D02*
D03*
X1878380Y58002D02*
D03*
X1834692Y44540D02*
D03*
X1770938Y57240D02*
D03*
X1764842Y206338D02*
D03*
X1747062Y127598D02*
D03*
X1803704Y83656D02*
D03*
X1889048Y109818D02*
D03*
X1811324Y43778D02*
D03*
X1808530Y109056D02*
D03*
X1825548D02*
D03*
X1823770Y189574D02*
D03*
X1843582Y109310D02*
D03*
X1791004Y48858D02*
D03*
X1910892Y91022D02*
D03*
X1896668Y73496D02*
D03*
X1901748Y980022D02*
D03*
X1890318Y997548D02*
D03*
X1875586Y1011772D02*
D03*
X1856282Y1020154D02*
D03*
X1905558Y961734D02*
D03*
X1904796Y942176D02*
D03*
X1898700Y924142D02*
D03*
X1876856Y896202D02*
D03*
X1860600Y887566D02*
D03*
X1841804Y880200D02*
D03*
X1822754Y880454D02*
D03*
X1787956Y890360D02*
D03*
X1771954Y900266D02*
D03*
X1757984Y912712D02*
D03*
X1742236Y943700D02*
D03*
X1741982Y961480D02*
D03*
X1748078Y977990D02*
D03*
X1756206Y994500D02*
D03*
X1778558Y1016598D02*
D03*
X1795576Y1023710D02*
D03*
X1836978Y1024218D02*
D03*
X1816404Y1025234D02*
D03*
X1839264Y1058762D02*
D03*
X1857298Y1053936D02*
D03*
X1875586Y1046062D02*
D03*
X1891842Y1033108D02*
D03*
X1903780Y1019392D02*
D03*
X1915464Y1000342D02*
D03*
X1925116Y979006D02*
D03*
X1929942Y958178D02*
D03*
X1928418Y934302D02*
D03*
X1923084Y911442D02*
D03*
X1716074Y970878D02*
D03*
X1713534Y950558D02*
D03*
X1717344Y927952D02*
D03*
X1725980Y906362D02*
D03*
X1738172Y887058D02*
D03*
X1724202Y991960D02*
D03*
X1737918Y1014058D02*
D03*
X1752904Y1032346D02*
D03*
X1772208Y1046062D02*
D03*
X1793290Y1056730D02*
D03*
X1817674Y1060032D02*
D03*
X1842500Y990000D02*
D03*
X1858060Y849974D02*
D03*
X1808022Y989674D02*
D03*
X1753920Y870548D02*
D03*
X1878888Y858356D02*
D03*
X1835200Y844894D02*
D03*
X1771446Y857594D02*
D03*
X1765350Y1006692D02*
D03*
X1747570Y927952D02*
D03*
X1804212Y884010D02*
D03*
X1889556Y910172D02*
D03*
X1811832Y844132D02*
D03*
X1809038Y909410D02*
D03*
X1826056D02*
D03*
X1824278Y989928D02*
D03*
X1844090Y909664D02*
D03*
X1791512Y849212D02*
D03*
X1911400Y891376D02*
D03*
X1897176Y873850D02*
D03*
X2152824Y226150D02*
D03*
X2138600Y208624D02*
D03*
X2258488Y250788D02*
D03*
X2205910Y190336D02*
D03*
X2225722Y110072D02*
D03*
X2223944Y190590D02*
D03*
X2240962D02*
D03*
X2238168Y255868D02*
D03*
X2160444Y189828D02*
D03*
X2245788Y215990D02*
D03*
X2302430Y172048D02*
D03*
X2284650Y93308D02*
D03*
X2278554Y242406D02*
D03*
X2214800Y255106D02*
D03*
X2171112Y241644D02*
D03*
X2296080Y229452D02*
D03*
X2241978Y110326D02*
D03*
X2191940Y250026D02*
D03*
X2207500Y110000D02*
D03*
X2232326Y39968D02*
D03*
X2256710Y43270D02*
D03*
X2277792Y53938D02*
D03*
X2297096Y67654D02*
D03*
X2312082Y85942D02*
D03*
X2325798Y108040D02*
D03*
X2311828Y212942D02*
D03*
X2324020Y193638D02*
D03*
X2332656Y172048D02*
D03*
X2336466Y149442D02*
D03*
X2333926Y129122D02*
D03*
X2126916Y188558D02*
D03*
X2121582Y165698D02*
D03*
X2120058Y141822D02*
D03*
X2124884Y120994D02*
D03*
X2134536Y99658D02*
D03*
X2146220Y80608D02*
D03*
X2158158Y66892D02*
D03*
X2174414Y53938D02*
D03*
X2192702Y46064D02*
D03*
X2210736Y41238D02*
D03*
X2233596Y74766D02*
D03*
X2213022Y75782D02*
D03*
X2254424Y76290D02*
D03*
X2271442Y83402D02*
D03*
X2293794Y105500D02*
D03*
X2301922Y122010D02*
D03*
X2308018Y138520D02*
D03*
X2307764Y156300D02*
D03*
X2292016Y187288D02*
D03*
X2278046Y199734D02*
D03*
X2262044Y209640D02*
D03*
X2227246Y219546D02*
D03*
X2208196Y219800D02*
D03*
X2189400Y212434D02*
D03*
X2173144Y203798D02*
D03*
X2151300Y175858D02*
D03*
X2145204Y157824D02*
D03*
X2144442Y138266D02*
D03*
X2193718Y79846D02*
D03*
X2174414Y88228D02*
D03*
X2159682Y102452D02*
D03*
X2148252Y119978D02*
D03*
X2153332Y1026504D02*
D03*
X2139108Y1008978D02*
D03*
X2258996Y1051142D02*
D03*
X2206418Y990690D02*
D03*
X2226230Y910426D02*
D03*
X2224452Y990944D02*
D03*
X2241470D02*
D03*
X2238676Y1056222D02*
D03*
X2160952Y990182D02*
D03*
X2246296Y1016344D02*
D03*
X2302938Y972402D02*
D03*
X2285158Y893662D02*
D03*
X2279062Y1042760D02*
D03*
X2215308Y1055460D02*
D03*
X2171620Y1041998D02*
D03*
X2296588Y1029806D02*
D03*
X2242486Y910680D02*
D03*
X2192448Y1050380D02*
D03*
X2208008Y910354D02*
D03*
X2232834Y840322D02*
D03*
X2257218Y843624D02*
D03*
X2278300Y854292D02*
D03*
X2297604Y868008D02*
D03*
X2312590Y886296D02*
D03*
X2326306Y908394D02*
D03*
X2312336Y1013296D02*
D03*
X2324528Y993992D02*
D03*
X2333164Y972402D02*
D03*
X2336974Y949796D02*
D03*
X2334434Y929476D02*
D03*
X2127424Y988912D02*
D03*
X2122090Y966052D02*
D03*
X2120566Y942176D02*
D03*
X2125392Y921348D02*
D03*
X2135044Y900012D02*
D03*
X2146728Y880962D02*
D03*
X2158666Y867246D02*
D03*
X2174922Y854292D02*
D03*
X2193210Y846418D02*
D03*
X2211244Y841592D02*
D03*
X2234104Y875120D02*
D03*
X2213530Y876136D02*
D03*
X2254932Y876644D02*
D03*
X2271950Y883756D02*
D03*
X2294302Y905854D02*
D03*
X2302430Y922364D02*
D03*
X2308526Y938874D02*
D03*
X2308272Y956654D02*
D03*
X2292524Y987642D02*
D03*
X2278554Y1000088D02*
D03*
X2262552Y1009994D02*
D03*
X2227754Y1019900D02*
D03*
X2208704Y1020154D02*
D03*
X2189908Y1012788D02*
D03*
X2173652Y1004152D02*
D03*
X2151808Y976212D02*
D03*
X2145712Y958178D02*
D03*
X2144950Y938620D02*
D03*
X2194226Y880200D02*
D03*
X2174922Y888582D02*
D03*
X2160190Y902806D02*
D03*
X2148760Y920332D02*
D03*
X2962824Y226150D02*
D03*
X2948600Y208624D02*
D03*
X3068488Y250788D02*
D03*
X3015910Y190336D02*
D03*
X3035722Y110072D02*
D03*
X3033944Y190590D02*
D03*
X3050962D02*
D03*
X3048168Y255868D02*
D03*
X2970444Y189828D02*
D03*
X3055788Y215990D02*
D03*
X3112430Y172048D02*
D03*
X3094650Y93308D02*
D03*
X3088554Y242406D02*
D03*
X3024800Y255106D02*
D03*
X2981112Y241644D02*
D03*
X3106080Y229452D02*
D03*
X3051978Y110326D02*
D03*
X3001940Y250026D02*
D03*
X3017500Y110000D02*
D03*
X3042326Y39968D02*
D03*
X3066710Y43270D02*
D03*
X3087792Y53938D02*
D03*
X3107096Y67654D02*
D03*
X3122082Y85942D02*
D03*
X3135798Y108040D02*
D03*
X3121828Y212942D02*
D03*
X3134020Y193638D02*
D03*
X3142656Y172048D02*
D03*
X3146466Y149442D02*
D03*
X3143926Y129122D02*
D03*
X2936916Y188558D02*
D03*
X2931582Y165698D02*
D03*
X2930058Y141822D02*
D03*
X2934884Y120994D02*
D03*
X2944536Y99658D02*
D03*
X2956220Y80608D02*
D03*
X2968158Y66892D02*
D03*
X2984414Y53938D02*
D03*
X3002702Y46064D02*
D03*
X3020736Y41238D02*
D03*
X3043596Y74766D02*
D03*
X3023022Y75782D02*
D03*
X3064424Y76290D02*
D03*
X3081442Y83402D02*
D03*
X3103794Y105500D02*
D03*
X3111922Y122010D02*
D03*
X3118018Y138520D02*
D03*
X3117764Y156300D02*
D03*
X3102016Y187288D02*
D03*
X3088046Y199734D02*
D03*
X3072044Y209640D02*
D03*
X3037246Y219546D02*
D03*
X3018196Y219800D02*
D03*
X2999400Y212434D02*
D03*
X2983144Y203798D02*
D03*
X2961300Y175858D02*
D03*
X2955204Y157824D02*
D03*
X2954442Y138266D02*
D03*
X3003718Y79846D02*
D03*
X2984414Y88228D02*
D03*
X2969682Y102452D02*
D03*
X2958252Y119978D02*
D03*
X2963332Y1026504D02*
D03*
X2949108Y1008978D02*
D03*
X3068996Y1051142D02*
D03*
X3016418Y990690D02*
D03*
X3036230Y910426D02*
D03*
X3034452Y990944D02*
D03*
X3051470D02*
D03*
X3048676Y1056222D02*
D03*
X2970952Y990182D02*
D03*
X3056296Y1016344D02*
D03*
X3112938Y972402D02*
D03*
X3095158Y893662D02*
D03*
X3089062Y1042760D02*
D03*
X3025308Y1055460D02*
D03*
X2981620Y1041998D02*
D03*
X3106588Y1029806D02*
D03*
X3052486Y910680D02*
D03*
X3002448Y1050380D02*
D03*
X3018008Y910354D02*
D03*
X3042834Y840322D02*
D03*
X3067218Y843624D02*
D03*
X3088300Y854292D02*
D03*
X3107604Y868008D02*
D03*
X3122590Y886296D02*
D03*
X3136306Y908394D02*
D03*
X3122336Y1013296D02*
D03*
X3134528Y993992D02*
D03*
X3143164Y972402D02*
D03*
X3146974Y949796D02*
D03*
X3144434Y929476D02*
D03*
X2937424Y988912D02*
D03*
X2932090Y966052D02*
D03*
X2930566Y942176D02*
D03*
X2935392Y921348D02*
D03*
X2945044Y900012D02*
D03*
X2956728Y880962D02*
D03*
X2968666Y867246D02*
D03*
X2984922Y854292D02*
D03*
X3003210Y846418D02*
D03*
X3021244Y841592D02*
D03*
X3044104Y875120D02*
D03*
X3023530Y876136D02*
D03*
X3064932Y876644D02*
D03*
X3081950Y883756D02*
D03*
X3104302Y905854D02*
D03*
X3112430Y922364D02*
D03*
X3118526Y938874D02*
D03*
X3118272Y956654D02*
D03*
X3102524Y987642D02*
D03*
X3088554Y1000088D02*
D03*
X3072552Y1009994D02*
D03*
X3037754Y1019900D02*
D03*
X3018704Y1020154D02*
D03*
X2999908Y1012788D02*
D03*
X2983652Y1004152D02*
D03*
X2961808Y976212D02*
D03*
X2955712Y958178D02*
D03*
X2954950Y938620D02*
D03*
X3004226Y880200D02*
D03*
X2984922Y888582D02*
D03*
X2970190Y902806D02*
D03*
X2958760Y920332D02*
D03*
X3521240Y179668D02*
D03*
X3509810Y197194D02*
D03*
X3495078Y211418D02*
D03*
X3475774Y219800D02*
D03*
X3525050Y161380D02*
D03*
X3524288Y141822D02*
D03*
X3518192Y123788D02*
D03*
X3496348Y95848D02*
D03*
X3480092Y87212D02*
D03*
X3461296Y79846D02*
D03*
X3442246Y80100D02*
D03*
X3407448Y90006D02*
D03*
X3391446Y99912D02*
D03*
X3377476Y112358D02*
D03*
X3361728Y143346D02*
D03*
X3361474Y161126D02*
D03*
X3367570Y177636D02*
D03*
X3375698Y194146D02*
D03*
X3398050Y216244D02*
D03*
X3415068Y223356D02*
D03*
X3456470Y223864D02*
D03*
X3435896Y224880D02*
D03*
X3458756Y258408D02*
D03*
X3476790Y253582D02*
D03*
X3495078Y245708D02*
D03*
X3511334Y232754D02*
D03*
X3523272Y219038D02*
D03*
X3534956Y199988D02*
D03*
X3544608Y178652D02*
D03*
X3549434Y157824D02*
D03*
X3547910Y133948D02*
D03*
X3542576Y111088D02*
D03*
X3335566Y170524D02*
D03*
X3333026Y150204D02*
D03*
X3336836Y127598D02*
D03*
X3345472Y106008D02*
D03*
X3357664Y86704D02*
D03*
X3343694Y191606D02*
D03*
X3357410Y213704D02*
D03*
X3372396Y231992D02*
D03*
X3391700Y245708D02*
D03*
X3412782Y256376D02*
D03*
X3437166Y259678D02*
D03*
X3461992Y189646D02*
D03*
X3477552Y49620D02*
D03*
X3427514Y189320D02*
D03*
X3373412Y70194D02*
D03*
X3498380Y58002D02*
D03*
X3454692Y44540D02*
D03*
X3390938Y57240D02*
D03*
X3384842Y206338D02*
D03*
X3367062Y127598D02*
D03*
X3423704Y83656D02*
D03*
X3509048Y109818D02*
D03*
X3431324Y43778D02*
D03*
X3428530Y109056D02*
D03*
X3445548D02*
D03*
X3443770Y189574D02*
D03*
X3463582Y109310D02*
D03*
X3411004Y48858D02*
D03*
X3530892Y91022D02*
D03*
X3516668Y73496D02*
D03*
X3521748Y980022D02*
D03*
X3510318Y997548D02*
D03*
X3495586Y1011772D02*
D03*
X3476282Y1020154D02*
D03*
X3525558Y961734D02*
D03*
X3524796Y942176D02*
D03*
X3518700Y924142D02*
D03*
X3496856Y896202D02*
D03*
X3480600Y887566D02*
D03*
X3461804Y880200D02*
D03*
X3442754Y880454D02*
D03*
X3407956Y890360D02*
D03*
X3391954Y900266D02*
D03*
X3377984Y912712D02*
D03*
X3362236Y943700D02*
D03*
X3361982Y961480D02*
D03*
X3368078Y977990D02*
D03*
X3376206Y994500D02*
D03*
X3398558Y1016598D02*
D03*
X3415576Y1023710D02*
D03*
X3456978Y1024218D02*
D03*
X3436404Y1025234D02*
D03*
X3459264Y1058762D02*
D03*
X3477298Y1053936D02*
D03*
X3495586Y1046062D02*
D03*
X3511842Y1033108D02*
D03*
X3523780Y1019392D02*
D03*
X3535464Y1000342D02*
D03*
X3545116Y979006D02*
D03*
X3549942Y958178D02*
D03*
X3548418Y934302D02*
D03*
X3543084Y911442D02*
D03*
X3336074Y970878D02*
D03*
X3333534Y950558D02*
D03*
X3337344Y927952D02*
D03*
X3345980Y906362D02*
D03*
X3358172Y887058D02*
D03*
X3344202Y991960D02*
D03*
X3357918Y1014058D02*
D03*
X3372904Y1032346D02*
D03*
X3392208Y1046062D02*
D03*
X3413290Y1056730D02*
D03*
X3437674Y1060032D02*
D03*
X3462500Y990000D02*
D03*
X3478060Y849974D02*
D03*
X3428022Y989674D02*
D03*
X3373920Y870548D02*
D03*
X3498888Y858356D02*
D03*
X3455200Y844894D02*
D03*
X3391446Y857594D02*
D03*
X3385350Y1006692D02*
D03*
X3367570Y927952D02*
D03*
X3424212Y884010D02*
D03*
X3509556Y910172D02*
D03*
X3431832Y844132D02*
D03*
X3429038Y909410D02*
D03*
X3446056D02*
D03*
X3444278Y989928D02*
D03*
X3464090Y909664D02*
D03*
X3411512Y849212D02*
D03*
X3531400Y891376D02*
D03*
X3517176Y873850D02*
D03*
X4331240Y179668D02*
D03*
X4319810Y197194D02*
D03*
X4305078Y211418D02*
D03*
X4285774Y219800D02*
D03*
X4335050Y161380D02*
D03*
X4334288Y141822D02*
D03*
X4328192Y123788D02*
D03*
X4306348Y95848D02*
D03*
X4290092Y87212D02*
D03*
X4271296Y79846D02*
D03*
X4252246Y80100D02*
D03*
X4217448Y90006D02*
D03*
X4201446Y99912D02*
D03*
X4187476Y112358D02*
D03*
X4171728Y143346D02*
D03*
X4171474Y161126D02*
D03*
X4177570Y177636D02*
D03*
X4185698Y194146D02*
D03*
X4208050Y216244D02*
D03*
X4225068Y223356D02*
D03*
X4266470Y223864D02*
D03*
X4245896Y224880D02*
D03*
X4268756Y258408D02*
D03*
X4286790Y253582D02*
D03*
X4305078Y245708D02*
D03*
X4321334Y232754D02*
D03*
X4333272Y219038D02*
D03*
X4344956Y199988D02*
D03*
X4354608Y178652D02*
D03*
X4359434Y157824D02*
D03*
X4357910Y133948D02*
D03*
X4352576Y111088D02*
D03*
X4145566Y170524D02*
D03*
X4143026Y150204D02*
D03*
X4146836Y127598D02*
D03*
X4155472Y106008D02*
D03*
X4167664Y86704D02*
D03*
X4153694Y191606D02*
D03*
X4167410Y213704D02*
D03*
X4182396Y231992D02*
D03*
X4201700Y245708D02*
D03*
X4222782Y256376D02*
D03*
X4247166Y259678D02*
D03*
X4271992Y189646D02*
D03*
X4287552Y49620D02*
D03*
X4237514Y189320D02*
D03*
X4183412Y70194D02*
D03*
X4308380Y58002D02*
D03*
X4264692Y44540D02*
D03*
X4200938Y57240D02*
D03*
X4194842Y206338D02*
D03*
X4177062Y127598D02*
D03*
X4233704Y83656D02*
D03*
X4319048Y109818D02*
D03*
X4241324Y43778D02*
D03*
X4238530Y109056D02*
D03*
X4255548D02*
D03*
X4253770Y189574D02*
D03*
X4273582Y109310D02*
D03*
X4221004Y48858D02*
D03*
X4340892Y91022D02*
D03*
X4326668Y73496D02*
D03*
X4331748Y980022D02*
D03*
X4320318Y997548D02*
D03*
X4305586Y1011772D02*
D03*
X4286282Y1020154D02*
D03*
X4335558Y961734D02*
D03*
X4334796Y942176D02*
D03*
X4328700Y924142D02*
D03*
X4306856Y896202D02*
D03*
X4290600Y887566D02*
D03*
X4271804Y880200D02*
D03*
X4252754Y880454D02*
D03*
X4217956Y890360D02*
D03*
X4201954Y900266D02*
D03*
X4187984Y912712D02*
D03*
X4172236Y943700D02*
D03*
X4171982Y961480D02*
D03*
X4178078Y977990D02*
D03*
X4186206Y994500D02*
D03*
X4208558Y1016598D02*
D03*
X4225576Y1023710D02*
D03*
X4266978Y1024218D02*
D03*
X4246404Y1025234D02*
D03*
X4269264Y1058762D02*
D03*
X4287298Y1053936D02*
D03*
X4305586Y1046062D02*
D03*
X4321842Y1033108D02*
D03*
X4333780Y1019392D02*
D03*
X4345464Y1000342D02*
D03*
X4355116Y979006D02*
D03*
X4359942Y958178D02*
D03*
X4358418Y934302D02*
D03*
X4353084Y911442D02*
D03*
X4146074Y970878D02*
D03*
X4143534Y950558D02*
D03*
X4147344Y927952D02*
D03*
X4155980Y906362D02*
D03*
X4168172Y887058D02*
D03*
X4154202Y991960D02*
D03*
X4167918Y1014058D02*
D03*
X4182904Y1032346D02*
D03*
X4202208Y1046062D02*
D03*
X4223290Y1056730D02*
D03*
X4247674Y1060032D02*
D03*
X4272500Y990000D02*
D03*
X4288060Y849974D02*
D03*
X4238022Y989674D02*
D03*
X4183920Y870548D02*
D03*
X4308888Y858356D02*
D03*
X4265200Y844894D02*
D03*
X4201446Y857594D02*
D03*
X4195350Y1006692D02*
D03*
X4177570Y927952D02*
D03*
X4234212Y884010D02*
D03*
X4319556Y910172D02*
D03*
X4241832Y844132D02*
D03*
X4239038Y909410D02*
D03*
X4256056D02*
D03*
X4254278Y989928D02*
D03*
X4274090Y909664D02*
D03*
X4221512Y849212D02*
D03*
X4341400Y891376D02*
D03*
X4327176Y873850D02*
D03*
M02*
