G04*
G04 #@! TF.GenerationSoftware,Altium Limited,Altium Designer,22.5.1 (42)*
G04*
G04 Layer_Physical_Order=2*
G04 Layer_Color=36540*
%FSLAX44Y44*%
%MOMM*%
G71*
G04*
G04 #@! TF.SameCoordinates,DEA68BF6-4121-4663-B488-331C3DE2D4AB*
G04*
G04*
G04 #@! TF.FilePolarity,Positive*
G04*
G01*
G75*
%ADD14C,1.0000*%
%ADD24C,1.2700*%
%ADD25C,25.0000*%
%ADD27C,1.3000*%
%ADD28R,1.3000X1.3000*%
%ADD29C,0.6000*%
%ADD30C,1.2700*%
%ADD31C,1.0000*%
D14*
X3600000Y1100000D02*
X4860000D01*
Y825000D02*
X5160000D01*
X4860000D02*
Y1100000D01*
Y0D02*
Y275090D01*
X5160000D01*
X5160000Y825000D02*
X5160000Y275090D01*
X1270000Y1100000D02*
X3600000D01*
X-0D02*
X0Y0D01*
X4860000D01*
X-0Y1100000D02*
X1270000Y1100000D01*
D24*
X870000Y829730D02*
X912635D01*
X870000Y770000D02*
Y807730D01*
X870000Y807730D01*
X2490270Y830000D02*
X2545000D01*
X2490000Y829730D02*
X2490270Y830000D01*
X2492730Y805000D02*
X2530000D01*
X2490000Y807730D02*
X2492730Y805000D01*
X2530000D02*
X2580000Y755000D01*
X870000Y770000D02*
X870000Y435000D01*
X4720000Y419968D02*
X4804969Y335000D01*
X4810000D01*
X4720000Y419968D02*
Y435000D01*
X4700000Y598080D02*
X4753080Y545000D01*
X4680000Y593049D02*
Y747561D01*
Y593049D02*
X4748049Y525000D01*
X4700000Y598080D02*
Y762561D01*
X4720000Y603112D02*
Y782561D01*
Y603112D02*
X4758112Y565000D01*
X4855000D01*
X4753080Y545000D02*
X4862560D01*
X4748049Y525000D02*
X4840235D01*
X34730Y640270D02*
X35000Y640000D01*
X34730Y640270D02*
Y822290D01*
X42169Y829730D01*
X60000D01*
Y600000D02*
Y807730D01*
X4870000Y422439D02*
X4877440Y415000D01*
X4961256D02*
X4979106Y432850D01*
X4877440Y415000D02*
X4961256D01*
X4979106Y432850D02*
X4984269D01*
X4870000Y422439D02*
Y537561D01*
X4984269Y432850D02*
X4986419Y435000D01*
X4986500D01*
X2580000Y755000D02*
X4672560D01*
X3359600Y790400D02*
X4712161D01*
X4689861Y772700D02*
X4700000Y762561D01*
X4712161Y790400D02*
X4720000Y782561D01*
X4672560Y755000D02*
X4680000Y747561D01*
X3332300Y772700D02*
X4689861D01*
X4855000Y565000D02*
X4902850Y612850D01*
X4862560Y545000D02*
X4870000Y537561D01*
X4840235Y525000D02*
X4847675Y517561D01*
Y362439D02*
Y517561D01*
X4902850Y612850D02*
X4984269D01*
X4986419Y615000D02*
X4986500D01*
X4984269Y612850D02*
X4986419Y615000D01*
X4847675Y362439D02*
X4855114Y355000D01*
X4900000D01*
X4810032Y420000D02*
X4827700Y402332D01*
Y297439D02*
Y402332D01*
X4835139Y290000D02*
X5137560D01*
X5145000Y297439D01*
Y535000D01*
X4827700Y297439D02*
X4835139Y290000D01*
X4810000Y420000D02*
X4810032D01*
X5072100Y342653D02*
Y427561D01*
X4919786Y335214D02*
X5064660D01*
X5072100Y342653D01*
X4900000Y355000D02*
X4919786Y335214D01*
X4770000Y660000D02*
X4835273D01*
X4847712Y672439D01*
X5064660Y435000D02*
X5072100Y427561D01*
X5036500Y435000D02*
X5064660D01*
X1675000Y790000D02*
X1730000Y735000D01*
X912635Y829730D02*
X952365Y790000D01*
X1675000D01*
X1730000Y735000D02*
X3300000D01*
X4847712Y672439D02*
Y802561D01*
X3320686Y829314D02*
X3359600Y790400D01*
X3298931Y806069D02*
X3332300Y772700D01*
X4145000Y830000D02*
X4165000Y810000D01*
X4810000D01*
X3300416Y829314D02*
X3320686D01*
X4110270Y830000D02*
X4145000D01*
X2545000D02*
X2585000Y790000D01*
X3150000D01*
X4847712Y802561D02*
X4855152Y810000D01*
X5036500Y535000D02*
X5145000D01*
X5036650Y714850D02*
X5137560D01*
X5145000Y535000D02*
Y707411D01*
X5137560Y714850D02*
X5145000Y707411D01*
X5036500Y715000D02*
X5036650Y714850D01*
X3300000Y829730D02*
X3300416Y829314D01*
X4110000Y829730D02*
X4110270Y830000D01*
X4410000Y335000D02*
Y375000D01*
X4855152Y810000D02*
X4979060D01*
X4986500Y802561D01*
Y715000D02*
Y802561D01*
X607500Y950000D02*
X716974D01*
X607500D02*
X664498Y893002D01*
D25*
X607500Y950000D02*
D03*
D27*
X4986500Y435000D02*
D03*
X5036500D02*
D03*
Y535000D02*
D03*
X4986500Y615000D02*
D03*
Y715000D02*
D03*
D28*
X5036500D02*
D03*
D29*
X3299431Y806930D02*
D03*
X3300000Y829730D02*
D03*
X4110000D02*
D03*
X60000Y807730D02*
D03*
Y829730D02*
D03*
X2490000Y807730D02*
D03*
X2490135Y829865D02*
D03*
X870000Y807730D02*
D03*
X870000Y829730D02*
D03*
D30*
X4810000Y810000D02*
D03*
X870000Y435000D02*
D03*
X4720000D02*
D03*
X35000Y640000D02*
D03*
X60000Y600000D02*
D03*
X4810000Y335000D02*
D03*
X4770000Y660000D02*
D03*
X3300000Y735000D02*
D03*
X3150000Y790000D02*
D03*
X4810000Y420000D02*
D03*
X4410000Y335000D02*
D03*
Y375000D02*
D03*
D31*
X665158Y893662D02*
D03*
X716974Y949796D02*
D03*
X688526Y938874D02*
D03*
X688272Y956654D02*
D03*
M02*
