M48
;Layer_Color=9474304
;FILE_FORMAT=4:4
METRIC,TZ
;TYPE=PLATED
T5F00S00C6.6000
;TYPE=NON_PLATED
%
G90
G05
T05
G00X4308080Y4282580
M15
G01X4362080
M16
G00X4767080Y4282580
M15
G01X4713080
M16
G00X5118080Y4282580
M15
G01X5172080
M16
G00X5577080Y4282580
M15
G01X5523080
M16
G00X5928080Y4282580
M15
G01X5982080
M16
G00X6387080Y4282580
M15
G01X6333080
M16
G00X6738080Y4282580
M15
G01X6792080
M16
G00X7197080Y4282580
M15
G01X7143080
M16
G00X7548080Y4282580
M15
G01X7602080
M16
G00X8007080Y4282580
M15
G01X7953080
M16
G00X8358080Y4282580
M15
G01X8412080
M16
G00X8817080Y4282580
M15
G01X8763080
M16
G00X4308080Y5082580
M15
G01X4362080
M16
G00X4767080Y5082580
M15
G01X4713080
M16
G00X5118080Y5082580
M15
G01X5172080
M16
G00X5577080Y5082580
M15
G01X5523080
M16
G00X5928080Y5082580
M15
G01X5982080
M16
G00X6387080Y5082580
M15
G01X6333080
M16
G00X6738080Y5082580
M15
G01X6792080
M16
G00X7197080Y5082580
M15
G01X7143080
M16
G00X7548080Y5082580
M15
G01X7602080
M16
G00X8007080Y5082580
M15
G01X7953080
M16
G00X8358080Y5082580
M15
G01X8412080
M16
G00X8817080Y5082580
M15
G01X8763080
M16
M17
M30
