M48
;Layer_Color=9474304
;FILE_FORMAT=4:4
METRIC,TZ
;TYPE=PLATED
T1F00S00C0.3000
T2F00S00C0.5000
T3F00S00C0.7112
T4F00S00C0.8000
T6F00S00C7.0000
;TYPE=NON_PLATED
T7F00S00C1.3000
%
T01
X4192580Y4962310
Y4940310
X5002580Y4940310
X5002580Y4962310
X6622715Y4962445
X6622580Y4940310
X7432012Y4939510
X7432580Y4962310
X8242580
T02
X4349050Y4356444
X4328476Y4357460
X4307648Y4355936
X4290630Y4348824
X4277422Y4338918
X4268278Y4326726
X4260150Y4310216
X4254054Y4293706
X4254308Y4275926
X4259642Y4260178
X4270056Y4244938
X4284026Y4232492
X4300028Y4222586
X4316284Y4216236
X4334826Y4212680
X4353876Y4212426
X4356162Y4241890
X4338128Y4241636
X4321110
X4323904Y4176358
X4347272Y4177120
X4303584Y4181438
X4283518Y4189820
X4265992Y4202774
X4250244Y4219284
X4238052Y4238588
X4229416Y4260178
X4225606Y4282784
X4228146Y4303104
X4236274Y4324186
X4249990Y4346284
X4264976Y4364572
X4320094Y4321900
X4336350Y4322154
X4354572Y4322226
X4368354Y4352380
X4387658Y4343998
X4402390Y4329774
X4427536Y4332568
X4415852Y4351618
X4403914Y4365334
X4413820Y4312248
X4417630Y4293960
X4416868Y4274402
X4410772Y4256368
X4401628Y4242398
X4388928Y4228428
X4372672Y4219792
X4370132Y4182200
X4390960Y4190582
X4409248Y4206076
X4423472Y4223602
X4435156Y4243668
X4440490Y4266528
X4442014Y4290404
X4437188Y4311232
X4634162Y4298278
X4632638Y4274402
X4637464Y4253574
X4660832Y4252558
X4657022Y4270846
X4657784Y4290404
X4663880Y4308438
X4673024Y4322408
X4685724Y4336378
X4701980Y4345014
X4720776Y4352380
X4739826Y4352126
X4758368Y4348570
X4753542Y4323170
X4736524
X4718490Y4322916
X4639496Y4321138
X4651180Y4341204
X4665404Y4358730
X4672262Y4235032
X4647116Y4232238
X4658800Y4213188
X4670738Y4199472
X4686994Y4186518
X4705282Y4178644
X4723316Y4173818
X4744906Y4172548
X4746176Y4207346
X4725602Y4208362
X4706298Y4212426
X4686994Y4220808
X4720080Y4242580
X4738302Y4242652
X4754558Y4242906
X4767004Y4208870
X4784022Y4215982
X4797230Y4225888
X4806374Y4238080
X4814502Y4254590
X4820598Y4271100
X4820344Y4288880
X4815010Y4304628
X4804596Y4319868
X4790626Y4332314
X4774624Y4342220
X4824408Y4345522
X4836600Y4326218
X4845236Y4304628
X4849046Y4282022
X4846506Y4261702
X4838378Y4240620
X4824662Y4218522
X4809676Y4200234
X4790372Y4186518
X4769290Y4175850
X4808660Y4362032
X5059990Y4346284
X5074976Y4364572
X5087422Y4338918
X5078278Y4326726
X5070150Y4310216
X5064054Y4293706
X5064308Y4275926
X5069642Y4260178
X5080056Y4244938
X5094026Y4232492
X5110028Y4222586
X5126284Y4216236
X5144826Y4212680
X5148128Y4241636
X5131110
X5133904Y4176358
X5157272Y4177120
X5113584Y4181438
X5093518Y4189820
X5075992Y4202774
X5060244Y4219284
X5048052Y4238588
X5039416Y4260178
X5035606Y4282784
X5038146Y4303104
X5046274Y4324186
X5100630Y4348824
X5117648Y4355936
X5138476Y4357460
X5159050Y4356444
X5146350Y4322154
X5130094Y4321900
X5164572Y4322226
X5178354Y4352380
X5197658Y4343998
X5212390Y4329774
X5237536Y4332568
X5225852Y4351618
X5213914Y4365334
X5223820Y4312248
X5227630Y4293960
X5226868Y4274402
X5220772Y4256368
X5211628Y4242398
X5198928Y4228428
X5182672Y4219792
X5163876Y4212426
X5166162Y4241890
X5180132Y4182200
X5200960Y4190582
X5219248Y4206076
X5233472Y4223602
X5245156Y4243668
X5250490Y4266528
X5252014Y4290404
X5247188Y4311232
X5444162Y4298278
X5442638Y4274402
X5447464Y4253574
X5470832Y4252558
X5467022Y4270846
X5467784Y4290404
X5473880Y4308438
X5483024Y4322408
X5495724Y4336378
X5511980Y4345014
X5530776Y4352380
X5549826Y4352126
X5546524Y4323170
X5528490Y4322916
X5449496Y4321138
X5461180Y4341204
X5475404Y4358730
X5482262Y4235032
X5457116Y4232238
X5468800Y4213188
X5480738Y4199472
X5496994Y4186518
X5515282Y4178644
X5533316Y4173818
X5554906Y4172548
X5556176Y4207346
X5535602Y4208362
X5516298Y4212426
X5496994Y4220808
X5530080Y4242580
X5548302Y4242652
X5564558Y4242906
X5577004Y4208870
X5594022Y4215982
X5607230Y4225888
X5616374Y4238080
X5624502Y4254590
X5630598Y4271100
X5630344Y4288880
X5625010Y4304628
X5614596Y4319868
X5600626Y4332314
X5584624Y4342220
X5568368Y4348570
X5563542Y4323170
X5646600Y4326218
X5655236Y4304628
X5659046Y4282022
X5656506Y4261702
X5648378Y4240620
X5634662Y4218522
X5619676Y4200234
X5600372Y4186518
X5579290Y4175850
X5634408Y4345522
X5618660Y4362032
X5869990Y4346284
X5884976Y4364572
X5897422Y4338918
X5888278Y4326726
X5880150Y4310216
X5874054Y4293706
X5874308Y4275926
X5879642Y4260178
X5890056Y4244938
X5904026Y4232492
X5920028Y4222586
X5936284Y4216236
X5941110Y4241636
X5943904Y4176358
X5923584Y4181438
X5903518Y4189820
X5885992Y4202774
X5870244Y4219284
X5858052Y4238588
X5849416Y4260178
X5845606Y4282784
X5848146Y4303104
X5856274Y4324186
X5910630Y4348824
X5927648Y4355936
X5948476Y4357460
X5940094Y4321900
X5956350Y4322154
X5974572Y4322226
X5969050Y4356444
X5988354Y4352380
X6007658Y4343998
X6022390Y4329774
X6047536Y4332568
X6035852Y4351618
X6023914Y4365334
X6033820Y4312248
X6037630Y4293960
X6036868Y4274402
X6030772Y4256368
X6021628Y4242398
X6008928Y4228428
X5992672Y4219792
X5973876Y4212426
X5954826Y4212680
X5958128Y4241636
X5976162Y4241890
X5990132Y4182200
X5967272Y4177120
X6010960Y4190582
X6029248Y4206076
X6043472Y4223602
X6055156Y4243668
X6060490Y4266528
X6062014Y4290404
X6057188Y4311232
X6254162Y4298278
X6252638Y4274402
X6257464Y4253574
X6280832Y4252558
X6277022Y4270846
X6277784Y4290404
X6283880Y4308438
X6293024Y4322408
X6305724Y4336378
X6321980Y4345014
X6340776Y4352380
X6338490Y4322916
X6259496Y4321138
X6271180Y4341204
X6285404Y4358730
X6292262Y4235032
X6267116Y4232238
X6278800Y4213188
X6290738Y4199472
X6306994Y4186518
X6325282Y4178644
X6343316Y4173818
X6345602Y4208362
X6326298Y4212426
X6306994Y4220808
X6340080Y4242580
X6358302Y4242652
X6374558Y4242906
X6366176Y4207346
X6387004Y4208870
X6404022Y4215982
X6417230Y4225888
X6426374Y4238080
X6434502Y4254590
X6440598Y4271100
X6440344Y4288880
X6435010Y4304628
X6424596Y4319868
X6410626Y4332314
X6394624Y4342220
X6378368Y4348570
X6359826Y4352126
X6356524Y4323170
X6373542
X6456600Y4326218
X6465236Y4304628
X6469046Y4282022
X6466506Y4261702
X6458378Y4240620
X6444662Y4218522
X6429676Y4200234
X6410372Y4186518
X6389290Y4175850
X6364906Y4172548
X6444408Y4345522
X6428660Y4362032
X6679990Y4346284
X6694976Y4364572
X6707422Y4338918
X6698278Y4326726
X6690150Y4310216
X6684054Y4293706
X6684308Y4275926
X6689642Y4260178
X6700056Y4244938
X6714026Y4232492
X6730028Y4222586
X6746284Y4216236
X6733584Y4181438
X6713518Y4189820
X6695992Y4202774
X6680244Y4219284
X6668052Y4238588
X6659416Y4260178
X6655606Y4282784
X6658146Y4303104
X6666274Y4324186
X6720630Y4348824
X6737648Y4355936
X6758476Y4357460
X6779050Y4356444
X6798354Y4352380
X6817658Y4343998
X6832390Y4329774
X6857536Y4332568
X6845852Y4351618
X6833914Y4365334
X6843820Y4312248
X6847630Y4293960
X6846868Y4274402
X6840772Y4256368
X6831628Y4242398
X6818928Y4228428
X6802672Y4219792
X6783876Y4212426
X6764826Y4212680
X6768128Y4241636
X6751110
X6786162Y4241890
X6800132Y4182200
X6777272Y4177120
X6753904Y4176358
X6820960Y4190582
X6839248Y4206076
X6853472Y4223602
X6865156Y4243668
X6870490Y4266528
X6872014Y4290404
X6867188Y4311232
X6784572Y4322226
X6766350Y4322154
X6750094Y4321900
X7069496Y4321138
X7064162Y4298278
X7062638Y4274402
X7067464Y4253574
X7090832Y4252558
X7087022Y4270846
X7087784Y4290404
X7093880Y4308438
X7103024Y4322408
X7115724Y4336378
X7131980Y4345014
X7095404Y4358730
X7081180Y4341204
X7077116Y4232238
X7102262Y4235032
X7116994Y4220808
X7136298Y4212426
X7135282Y4178644
X7116994Y4186518
X7100738Y4199472
X7088800Y4213188
X7155602Y4208362
X7176176Y4207346
X7197004Y4208870
X7214022Y4215982
X7227230Y4225888
X7236374Y4238080
X7244502Y4254590
X7250598Y4271100
X7250344Y4288880
X7245010Y4304628
X7234596Y4319868
X7220626Y4332314
X7204624Y4342220
X7188368Y4348570
X7169826Y4352126
X7150776Y4352380
X7148490Y4322916
X7166524Y4323170
X7183542
X7184558Y4242906
X7168302Y4242652
X7150080Y4242580
X7153316Y4173818
X7174906Y4172548
X7199290Y4175850
X7220372Y4186518
X7239676Y4200234
X7254662Y4218522
X7268378Y4240620
X7276506Y4261702
X7279046Y4282022
X7275236Y4304628
X7266600Y4326218
X7254408Y4345522
X7238660Y4362032
X7489990Y4346284
X7504976Y4364572
X7517422Y4338918
X7508278Y4326726
X7500150Y4310216
X7494054Y4293706
X7494308Y4275926
X7499642Y4260178
X7510056Y4244938
X7524026Y4232492
X7540028Y4222586
X7523518Y4189820
X7505992Y4202774
X7490244Y4219284
X7478052Y4238588
X7469416Y4260178
X7465606Y4282784
X7468146Y4303104
X7476274Y4324186
X7530630Y4348824
X7547648Y4355936
X7568476Y4357460
X7589050Y4356444
X7608354Y4352380
X7627658Y4343998
X7642390Y4329774
X7667536Y4332568
X7655852Y4351618
X7643914Y4365334
X7653820Y4312248
X7657630Y4293960
X7656868Y4274402
X7650772Y4256368
X7641628Y4242398
X7628928Y4228428
X7612672Y4219792
X7593876Y4212426
X7574826Y4212680
X7556284Y4216236
X7561110Y4241636
X7578128
X7596162Y4241890
X7610132Y4182200
X7587272Y4177120
X7563904Y4176358
X7543584Y4181438
X7630960Y4190582
X7649248Y4206076
X7663472Y4223602
X7675156Y4243668
X7680490Y4266528
X7682014Y4290404
X7677188Y4311232
X7594572Y4322226
X7576350Y4322154
X7560094Y4321900
X7879496Y4321138
X7874162Y4298278
X7872638Y4274402
X7877464Y4253574
X7900832Y4252558
X7897022Y4270846
X7897784Y4290404
X7903880Y4308438
X7913024Y4322408
X7925724Y4336378
X7891180Y4341204
X7905404Y4358730
X7912262Y4235032
X7887116Y4232238
X7898800Y4213188
X7910738Y4199472
X7926994Y4186518
Y4220808
X7946298Y4212426
X7965602Y4208362
X7986176Y4207346
X8007004Y4208870
X8024022Y4215982
X8037230Y4225888
X8046374Y4238080
X8054502Y4254590
X8060598Y4271100
X8060344Y4288880
X8055010Y4304628
X8044596Y4319868
X8030626Y4332314
X8014624Y4342220
X7998368Y4348570
X7979826Y4352126
X7960776Y4352380
X7941980Y4345014
X7958490Y4322916
X7976524Y4323170
X7993542
X7994558Y4242906
X7978302Y4242652
X7960080Y4242580
X7963316Y4173818
X7984906Y4172548
X8009290Y4175850
X8030372Y4186518
X8049676Y4200234
X8064662Y4218522
X8078378Y4240620
X8086506Y4261702
X8089046Y4282022
X8085236Y4304628
X8076600Y4326218
X8064408Y4345522
X8048660Y4362032
X8299990Y4346284
X8314976Y4364572
X8327422Y4338918
X8318278Y4326726
X8310150Y4310216
X8304054Y4293706
X8304308Y4275926
X8309642Y4260178
X8320056Y4244938
X8334026Y4232492
X8333518Y4189820
X8315992Y4202774
X8300244Y4219284
X8288052Y4238588
X8279416Y4260178
X8275606Y4282784
X8278146Y4303104
X8286274Y4324186
X7945282Y4178644
X8353584Y4181438
X8373904Y4176358
X8397272Y4177120
X8420132Y4182200
X8440960Y4190582
X8459248Y4206076
X8473472Y4223602
X8485156Y4243668
X8490490Y4266528
X8492014Y4290404
X8487188Y4311232
X8463820Y4312248
X8467630Y4293960
X8466868Y4274402
X8460772Y4256368
X8451628Y4242398
X8438928Y4228428
X8422672Y4219792
X8403876Y4212426
X8384826Y4212680
X8366284Y4216236
X8350028Y4222586
X8371110Y4241636
X8388128
X8406162Y4241890
X8404572Y4322226
X8386350Y4322154
X8370094Y4321900
X8378476Y4357460
X8399050Y4356444
X8418354Y4352380
X8437658Y4343998
X8452390Y4329774
X8477536Y4332568
X8465852Y4351618
X8453914Y4365334
X8357648Y4355936
X8340630Y4348824
X8701180Y4341204
X8715404Y4358730
X8723024Y4322408
X8713880Y4308438
X8707784Y4290404
X8707022Y4270846
X8710832Y4252558
X8687464Y4253574
X8682638Y4274402
X8684162Y4298278
X8689496Y4321138
X8697116Y4232238
X8722262Y4235032
X8708800Y4213188
X8720738Y4199472
X8736994Y4186518
X8755282Y4178644
X8773316Y4173818
X8794906Y4172548
X8819290Y4175850
X8840372Y4186518
X8859676Y4200234
X8874662Y4218522
X8847230Y4225888
X8856374Y4238080
X8864502Y4254590
X8870598Y4271100
X8870344Y4288880
X8865010Y4304628
X8854596Y4319868
X8840626Y4332314
X8824624Y4342220
X8808368Y4348570
X8789826Y4352126
X8770776Y4352380
X8751980Y4345014
X8735724Y4336378
X8768490Y4322916
X8786524Y4323170
X8803542
X8804558Y4242906
X8788302Y4242652
X8770080Y4242580
X8775602Y4208362
X8796176Y4207346
X8817004Y4208870
X8834022Y4215982
X8888378Y4240620
X8896506Y4261702
X8899046Y4282022
X8895236Y4304628
X8886600Y4326218
X8874408Y4345522
X8858660Y4362032
X8756298Y4212426
X8736994Y4220808
X8733692Y4374224
X8754520Y4382606
X8777380Y4387686
X8800748Y4388448
X8821068Y4383368
X8841134Y4374986
X8437658Y4378288
X8419370Y4386162
X8401336Y4390988
X8379746Y4392258
X8355362Y4388956
X8334280Y4378288
X8031134Y4374986
X8011068Y4383368
X7990748Y4388448
X7967380Y4387686
X7944520Y4382606
X7923692Y4374224
X7627658Y4378288
X7609370Y4386162
X7591336Y4390988
X7569746Y4392258
X7545362Y4388956
X7524280Y4378288
X7221134Y4374986
X7201068Y4383368
X7180748Y4388448
X7157380Y4387686
X7134520Y4382606
X7113692Y4374224
X6817658Y4378288
X6799370Y4386162
X6781336Y4390988
X6759746Y4392258
X6735362Y4388956
X6714280Y4378288
X6411134Y4374986
X6391068Y4383368
X6370748Y4388448
X6347380Y4387686
X6324520Y4382606
X6303692Y4374224
X6007658Y4378288
X5989370Y4386162
X5971336Y4390988
X5949746Y4392258
X5925362Y4388956
X5904280Y4378288
X5601134Y4374986
X5581068Y4383368
X5560748Y4388448
X5537380Y4387686
X5514520Y4382606
X5493692Y4374224
X5197658Y4378288
X5179370Y4386162
X5161336Y4390988
X5139746Y4392258
X5115362Y4388956
X5094280Y4378288
X4791134Y4374986
X4771068Y4383368
X4750748Y4388448
X4727380Y4387686
X4704520Y4382606
X4683692Y4374224
X4387658Y4378288
X4369370Y4386162
X4351336Y4390988
X4329746Y4392258
X4305362Y4388956
X4284280Y4378288
X4284026Y4990174
X4304092Y4981792
X4324412Y4976712
X4347780Y4977474
X4354384Y5012780
X4335334Y5013034
X4316792Y5016590
X4300536Y5022940
X4284534Y5032846
X4270564Y5045292
X4260150Y5060532
X4254816Y5076280
X4254562Y5094060
X4260658Y5110570
X4268786Y5127080
X4277930Y5139272
X4291138Y5149178
X4308156Y5156290
X4328984Y5157814
X4349558Y5156798
X4355080Y5122580
X4336858Y5122508
X4320602Y5122254
X4321618Y5041990
X4338636
X4356670Y5042244
X4238560Y5038942
X4229924Y5060532
X4226114Y5083138
X4228654Y5103458
X4236782Y5124540
X4250498Y5146638
X4250752Y5019638
X4266500Y5003128
X4373180Y5020146
X4389436Y5028782
X4402136Y5042752
X4411280Y5056722
X4417376Y5074756
X4418138Y5094314
X4414328Y5112602
X4437696Y5111586
X4442522Y5090758
X4440998Y5066882
X4435664Y5044022
X4423980Y5023956
X4409756Y5006430
X4391468Y4990936
X4370640Y4982554
X4368862Y5152734
X4388166Y5144352
X4402898Y5130128
X4428044Y5132922
X4416360Y5151972
X4651688Y5141558
X4665912Y5159084
X4686232Y5136732
X4702488Y5145368
X4721284Y5152734
X4740334Y5152480
X4758876Y5148924
X4754050Y5123524
X4737032
X4718998Y5123270
X4673532Y5122762
X4664388Y5108792
X4658292Y5090758
X4657530Y5071200
X4661340Y5052912
X4637972Y5053928
X4633146Y5074756
X4634670Y5098632
X4640004Y5121492
X4647624Y5032592
X4672770Y5035386
X4687502Y5021162
X4706806Y5012780
X4726110Y5008716
X4746684Y5007700
X4745414Y4972902
X4723824Y4974172
X4705790Y4978998
X4687502Y4986872
X4671246Y4999826
X4659308Y5013542
X4720588Y5042934
X4738810Y5043006
X4755066Y5043260
X4767512Y5009224
X4784530Y5016336
X4797738Y5026242
X4806882Y5038434
X4815010Y5054944
X4821106Y5071454
X4820852Y5089234
X4815518Y5104982
X4805104Y5120222
X4791134Y5132668
X4775132Y5142574
X4824916Y5145876
X4837108Y5126572
X4845744Y5104982
X4849554Y5082376
X4847014Y5062056
X4838886Y5040974
X4825170Y5018876
X4810184Y5000588
X4790880Y4986872
X4769798Y4976204
X5076500Y5003128
X5094026Y4990174
X5114092Y4981792
X5134412Y4976712
X5157780Y4977474
X5145334Y5013034
X5126792Y5016590
X5110536Y5022940
X5094534Y5032846
X5080564Y5045292
X5070150Y5060532
X5064816Y5076280
X5064562Y5094060
X5070658Y5110570
X5078786Y5127080
X5087930Y5139272
X5101138Y5149178
X5118156Y5156290
X5138984Y5157814
X5146858Y5122508
X5130602Y5122254
X5131618Y5041990
X5148636
X5048560Y5038942
X5039924Y5060532
X5036114Y5083138
X5038654Y5103458
X5046782Y5124540
X5060498Y5146638
X5060752Y5019638
X5164384Y5012780
X5183180Y5020146
X5199436Y5028782
X5212136Y5042752
X5221280Y5056722
X5227376Y5074756
X5228138Y5094314
X5224328Y5112602
X5247696Y5111586
X5252522Y5090758
X5250998Y5066882
X5245664Y5044022
X5233980Y5023956
X5219756Y5006430
X5201468Y4990936
X5180640Y4982554
X5166670Y5042244
X5165080Y5122580
X5159558Y5156798
X5178862Y5152734
X5198166Y5144352
X5212898Y5130128
X5238044Y5132922
X5226360Y5151972
X5461688Y5141558
X5475912Y5159084
X5496232Y5136732
X5512488Y5145368
X5531284Y5152734
X5550334Y5152480
X5547032Y5123524
X5528998Y5123270
X5483532Y5122762
X5474388Y5108792
X5468292Y5090758
X5467530Y5071200
X5471340Y5052912
X5447972Y5053928
X5443146Y5074756
X5444670Y5098632
X5450004Y5121492
X5457624Y5032592
X5482770Y5035386
X5497502Y5021162
X5516806Y5012780
X5536110Y5008716
X5533824Y4974172
X5555414Y4972902
X5515790Y4978998
X5497502Y4986872
X5481246Y4999826
X5469308Y5013542
X5530588Y5042934
X5548810Y5043006
X5565066Y5043260
X5556684Y5007700
X5577512Y5009224
X5594530Y5016336
X5607738Y5026242
X5616882Y5038434
X5625010Y5054944
X5631106Y5071454
X5630852Y5089234
X5625518Y5104982
X5615104Y5120222
X5601134Y5132668
X5585132Y5142574
X5568876Y5148924
X5564050Y5123524
X5647108Y5126572
X5655744Y5104982
X5659554Y5082376
X5657014Y5062056
X5648886Y5040974
X5635170Y5018876
X5620184Y5000588
X5600880Y4986872
X5579798Y4976204
X5634916Y5145876
X5870498Y5146638
X5897930Y5139272
X5888786Y5127080
X5880658Y5110570
X5874562Y5094060
X5874816Y5076280
X5880150Y5060532
X5890564Y5045292
X5904534Y5032846
X5920536Y5022940
X5936792Y5016590
X5941618Y5041990
X5944412Y4976712
X5924092Y4981792
X5904026Y4990174
X5886500Y5003128
X5870752Y5019638
X5858560Y5038942
X5849924Y5060532
X5846114Y5083138
X5848654Y5103458
X5856782Y5124540
X5911138Y5149178
X5928156Y5156290
X5948984Y5157814
X5940602Y5122254
X5956858Y5122508
X5975080Y5122580
X5969558Y5156798
X5988862Y5152734
X6008166Y5144352
X6022898Y5130128
X6048044Y5132922
X6036360Y5151972
X6034328Y5112602
X6038138Y5094314
X6037376Y5074756
X6031280Y5056722
X6022136Y5042752
X6009436Y5028782
X5993180Y5020146
X5974384Y5012780
X5955334Y5013034
X5958636Y5041990
X5976670Y5042244
X5990640Y4982554
X5967780Y4977474
X6011468Y4990936
X6029756Y5006430
X6043980Y5023956
X6055664Y5044022
X6060998Y5066882
X6062522Y5090758
X6057696Y5111586
X6254670Y5098632
X6253146Y5074756
X6257972Y5053928
X6281340Y5052912
X6277530Y5071200
X6278292Y5090758
X6284388Y5108792
X6293532Y5122762
X6306232Y5136732
X6322488Y5145368
X6341284Y5152734
X6338998Y5123270
X6260004Y5121492
X6271688Y5141558
X6285912Y5159084
X6292770Y5035386
X6267624Y5032592
X6279308Y5013542
X6291246Y4999826
X6307502Y4986872
X6325790Y4978998
X6343824Y4974172
X6346110Y5008716
X6326806Y5012780
X6307502Y5021162
X6340588Y5042934
X6358810Y5043006
X6375066Y5043260
X6366684Y5007700
X6387512Y5009224
X6404530Y5016336
X6417738Y5026242
X6426882Y5038434
X6435010Y5054944
X6441106Y5071454
X6440852Y5089234
X6435518Y5104982
X6425104Y5120222
X6411134Y5132668
X6395132Y5142574
X6378876Y5148924
X6360334Y5152480
X6357032Y5123524
X6374050
X6457108Y5126572
X6465744Y5104982
X6469554Y5082376
X6467014Y5062056
X6458886Y5040974
X6445170Y5018876
X6430184Y5000588
X6410880Y4986872
X6389798Y4976204
X6365414Y4972902
X6444916Y5145876
X6680498Y5146638
X6707930Y5139272
X6698786Y5127080
X6690658Y5110570
X6684562Y5094060
X6684816Y5076280
X6690150Y5060532
X6700564Y5045292
X6714534Y5032846
X6730536Y5022940
X6746792Y5016590
X6734092Y4981792
X6714026Y4990174
X6696500Y5003128
X6680752Y5019638
X6668560Y5038942
X6659924Y5060532
X6656114Y5083138
X6658654Y5103458
X6666782Y5124540
X6721138Y5149178
X6738156Y5156290
X6758984Y5157814
X6779558Y5156798
X6798862Y5152734
X6818166Y5144352
X6832898Y5130128
X6858044Y5132922
X6846360Y5151972
X6844328Y5112602
X6848138Y5094314
X6847376Y5074756
X6841280Y5056722
X6832136Y5042752
X6819436Y5028782
X6803180Y5020146
X6784384Y5012780
X6765334Y5013034
X6768636Y5041990
X6751618
X6786670Y5042244
X6800640Y4982554
X6777780Y4977474
X6754412Y4976712
X6821468Y4990936
X6839756Y5006430
X6853980Y5023956
X6865664Y5044022
X6870998Y5066882
X6872522Y5090758
X6867696Y5111586
X6785080Y5122580
X6766858Y5122508
X6750602Y5122254
X7070004Y5121492
X7064670Y5098632
X7063146Y5074756
X7067972Y5053928
X7091340Y5052912
X7087530Y5071200
X7088292Y5090758
X7094388Y5108792
X7103532Y5122762
X7116232Y5136732
X7132488Y5145368
X7095912Y5159084
X7081688Y5141558
X7077624Y5032592
X7102770Y5035386
X7117502Y5021162
X7136806Y5012780
X7135790Y4978998
X7117502Y4986872
X7101246Y4999826
X7089308Y5013542
X7156110Y5008716
X7176684Y5007700
X7197512Y5009224
X7214530Y5016336
X7227738Y5026242
X7236882Y5038434
X7245010Y5054944
X7251106Y5071454
X7250852Y5089234
X7245518Y5104982
X7235104Y5120222
X7221134Y5132668
X7205132Y5142574
X7188876Y5148924
X7170334Y5152480
X7151284Y5152734
X7148998Y5123270
X7167032Y5123524
X7184050
X7185066Y5043260
X7168810Y5043006
X7150588Y5042934
X7153824Y4974172
X7175414Y4972902
X7199798Y4976204
X7220880Y4986872
X7240184Y5000588
X7255170Y5018876
X7268886Y5040974
X7277014Y5062056
X7279554Y5082376
X7275744Y5104982
X7267108Y5126572
X7254916Y5145876
X7490498Y5146638
X7517930Y5139272
X7508786Y5127080
X7500658Y5110570
X7494562Y5094060
X7494816Y5076280
X7500150Y5060532
X7510564Y5045292
X7524534Y5032846
X7540536Y5022940
X7524026Y4990174
X7506500Y5003128
X7490752Y5019638
X7478560Y5038942
X7469924Y5060532
X7466114Y5083138
X7468654Y5103458
X7476782Y5124540
X7531138Y5149178
X7548156Y5156290
X7568984Y5157814
X7589558Y5156798
X7608862Y5152734
X7628166Y5144352
X7642898Y5130128
X7668044Y5132922
X7656360Y5151972
X7654328Y5112602
X7658138Y5094314
X7657376Y5074756
X7651280Y5056722
X7642136Y5042752
X7629436Y5028782
X7613180Y5020146
X7594384Y5012780
X7575334Y5013034
X7556792Y5016590
X7561618Y5041990
X7578636
X7596670Y5042244
X7610640Y4982554
X7587780Y4977474
X7564412Y4976712
X7544092Y4981792
X7631468Y4990936
X7649756Y5006430
X7663980Y5023956
X7675664Y5044022
X7680998Y5066882
X7682522Y5090758
X7677696Y5111586
X7595080Y5122580
X7576858Y5122508
X7560602Y5122254
X7880004Y5121492
X7874670Y5098632
X7873146Y5074756
X7877972Y5053928
X7901340Y5052912
X7897530Y5071200
X7898292Y5090758
X7904388Y5108792
X7913532Y5122762
X7926232Y5136732
X7891688Y5141558
X7905912Y5159084
X7912770Y5035386
X7887624Y5032592
X7899308Y5013542
X7911246Y4999826
X7927502Y4986872
Y5021162
X7946806Y5012780
X7966110Y5008716
X7986684Y5007700
X8007512Y5009224
X8024530Y5016336
X8037738Y5026242
X8046882Y5038434
X8055010Y5054944
X8061106Y5071454
X8060852Y5089234
X8055518Y5104982
X8045104Y5120222
X8031134Y5132668
X8015132Y5142574
X7998876Y5148924
X7980334Y5152480
X7961284Y5152734
X7942488Y5145368
X7958998Y5123270
X7977032Y5123524
X7994050
X7995066Y5043260
X7978810Y5043006
X7960588Y5042934
X7963824Y4974172
X7985414Y4972902
X8009798Y4976204
X8030880Y4986872
X8050184Y5000588
X8065170Y5018876
X8078886Y5040974
X8087014Y5062056
X8089554Y5082376
X8085744Y5104982
X8077108Y5126572
X8064916Y5145876
X8300498Y5146638
X8327930Y5139272
X8318786Y5127080
X8310658Y5110570
X8304562Y5094060
X8304816Y5076280
X8310150Y5060532
X8320564Y5045292
X8288560Y5038942
X8279924Y5060532
X8276114Y5083138
X8278654Y5103458
X8286782Y5124540
X8300752Y5019638
X8316500Y5003128
X8334026Y4990174
X7945790Y4978998
X8354092Y4981792
X8374412Y4976712
X8397780Y4977474
X8420640Y4982554
X8441468Y4990936
X8459756Y5006430
X8473980Y5023956
X8485664Y5044022
X8490998Y5066882
X8492522Y5090758
X8487696Y5111586
X8464328Y5112602
X8468138Y5094314
X8467376Y5074756
X8461280Y5056722
X8452136Y5042752
X8439436Y5028782
X8423180Y5020146
X8404384Y5012780
X8385334Y5013034
X8366792Y5016590
X8350536Y5022940
X8334534Y5032846
X8371618Y5041990
X8388636
X8406670Y5042244
X8405080Y5122580
X8386858Y5122508
X8370602Y5122254
X8378984Y5157814
X8399558Y5156798
X8418862Y5152734
X8438166Y5144352
X8452898Y5130128
X8478044Y5132922
X8466360Y5151972
X8358156Y5156290
X8341138Y5149178
X8701688Y5141558
X8715912Y5159084
X8723532Y5122762
X8714388Y5108792
X8708292Y5090758
X8707530Y5071200
X8711340Y5052912
X8687972Y5053928
X8683146Y5074756
X8684670Y5098632
X8690004Y5121492
X8697624Y5032592
X8722770Y5035386
X8709308Y5013542
X8721246Y4999826
X8737502Y4986872
X8755790Y4978998
X8773824Y4974172
X8795414Y4972902
X8819798Y4976204
X8840880Y4986872
X8860184Y5000588
X8875170Y5018876
X8847738Y5026242
X8856882Y5038434
X8865010Y5054944
X8871106Y5071454
X8870852Y5089234
X8865518Y5104982
X8855104Y5120222
X8841134Y5132668
X8825132Y5142574
X8808876Y5148924
X8790334Y5152480
X8771284Y5152734
X8752488Y5145368
X8736232Y5136732
X8768998Y5123270
X8787032Y5123524
X8804050
X8805066Y5043260
X8788810Y5043006
X8770588Y5042934
X8776110Y5008716
X8796684Y5007700
X8817512Y5009224
X8834530Y5016336
X8888886Y5040974
X8897014Y5062056
X8899554Y5082376
X8895744Y5104982
X8887108Y5126572
X8874916Y5145876
X8756806Y5012780
X8737502Y5021162
X8734200Y5174578
X8755028Y5182960
X8777888Y5188040
X8801256Y5188802
X8821576Y5183722
X8841642Y5175340
X8859168Y5162386
X8454422Y5165688
X8438166Y5178642
X8419878Y5186516
X8401844Y5191342
X8380254Y5192612
X8355870Y5189310
X8334788Y5178642
X8315484Y5164926
X8049168Y5162386
X8031642Y5175340
X8011576Y5183722
X7991256Y5188802
X7967888Y5188040
X7945028Y5182960
X7924200Y5174578
X7644422Y5165688
X7628166Y5178642
X7609878Y5186516
X7591844Y5191342
X7570254Y5192612
X7545870Y5189310
X7524788Y5178642
X7505484Y5164926
X7239168Y5162386
X7221642Y5175340
X7201576Y5183722
X7181256Y5188802
X7157888Y5188040
X7135028Y5182960
X7114200Y5174578
X6834422Y5165688
X6818166Y5178642
X6799878Y5186516
X6781844Y5191342
X6760254Y5192612
X6735870Y5189310
X6714788Y5178642
X6695484Y5164926
X6429168Y5162386
X6411642Y5175340
X6391576Y5183722
X6371256Y5188802
X6347888Y5188040
X6325028Y5182960
X6304200Y5174578
X6024422Y5165688
X6008166Y5178642
X5989878Y5186516
X5971844Y5191342
X5950254Y5192612
X5925870Y5189310
X5904788Y5178642
X5885484Y5164926
X5619168Y5162386
X5601642Y5175340
X5581576Y5183722
X5561256Y5188802
X5537888Y5188040
X5515028Y5182960
X5494200Y5174578
X5214422Y5165688
X5198166Y5178642
X5179878Y5186516
X5161844Y5191342
X5140254Y5192612
X5115870Y5189310
X5094788Y5178642
X5075484Y5164926
X4809168Y5162386
X4791642Y5175340
X4771576Y5183722
X4751256Y5188802
X4727888Y5188040
X4705028Y5182960
X4684200Y5174578
X4404422Y5165688
X4388166Y5178642
X4369878Y5186516
X4351844Y5191342
X4330254Y5192612
X4305870Y5189310
X4284788Y5178642
X4265484Y5164926
T03
X9242580Y4472580
X9147580Y4447580
X8942580
Y4467580
Y4487580
Y4507580
Y4527580
Y4552580
Y4587580
X9032580
Y4607580
X8852580Y4567580
X8902580Y4732580
Y4752580
X8542580Y4507580
Y4467580
X7727580Y4447580
Y4422580
X5812580Y4587580
X5782580Y4752580
X5002580Y4567580
X4192580Y4732580
X4167580Y4772580
X7282580Y4922580
X7432580Y4867580
X8902580Y4857580
Y4832580
Y4812580
Y4792580
Y4772580
Y4882580
Y4902580
X8902580Y4922580
X8942580Y4942580
X9017580Y4832580
T04
X9169080Y4747580
Y4727580
Y4707580
Y4687580
Y4667580
Y4647580
Y4627580
Y4607580
Y4587580
Y4567580
Y4547580
Y4527580
Y4507580
X9119080
Y4527580
Y4547580
Y4567580
Y4587580
Y4607580
Y4627580
Y4647580
Y4667580
Y4687580
Y4707580
Y4727580
Y4747580
Y4767580
Y4787580
Y4807580
Y4827580
Y4847580
X9169080
Y4827580
Y4807580
Y4787580
Y4767580
T06
X8790080Y4682580
X8385080
X7980080
X7575080
X7170080
X6765080
X6360080
X5955080
X5550080
X5145080
X4740080
X4335080
T07
X9186080Y4867580
M30
